<svg width="27" height="34" viewBox="0 0 27 34" fill="none" xmlns="http://www.w3.org/2000/svg">
<path d="M22.5513 17.6191C22.5095 13.4191 25.9763 11.4046 26.1313 11.3029C24.1829 8.45412 21.1475 8.06323 20.0671 8.01875C17.4859 7.75659 15.0281 9.53917 13.7186 9.53917C12.4118 9.53917 10.3886 8.05717 8.2482 8.09491C5.43246 8.13669 2.83711 9.73259 1.38813 12.2531C-1.53611 17.3259 0.640049 24.8438 3.48948 28.9609C4.88252 30.9733 6.5438 33.2377 8.72333 33.1548C10.824 33.0719 11.6166 31.7962 14.156 31.7962C16.6954 31.7962 17.4084 33.1548 19.6304 33.1124C21.8895 33.0713 23.3216 31.0616 24.7032 29.0411C26.3025 26.7032 26.9609 24.4394 27 24.3248C26.9508 24.3019 22.5965 22.6339 22.5513 17.6191Z" fill="black"/>
<path d="M18.3756 5.29383C19.5315 3.89068 20.3146 1.94096 20.1016 0C18.4336 0.0673943 16.4145 1.10864 15.2169 2.51044C14.1439 3.75454 13.2058 5.73526 13.4572 7.64117C15.318 7.78539 17.2158 6.69428 18.3756 5.29383Z" fill="black"/>
</svg>
