<svg width="22" height="22" viewBox="0 0 22 22" fill="none" xmlns="http://www.w3.org/2000/svg">
<path d="M8.05732 20.1082H13.3048C17.6776 20.1082 19.4268 18.359 19.4268 13.9862V8.73872C19.4268 4.36585 17.6776 2.6167 13.3048 2.6167H8.05732C3.68445 2.6167 1.9353 4.36585 1.9353 8.73872V13.9862C1.9353 18.359 3.68445 20.1082 8.05732 20.1082Z" stroke="#191D31" stroke-width="1.31186" stroke-linecap="round" stroke-linejoin="round"/>
<path d="M16.2609 14.2227V7.49727C16.2609 6.82385 15.7187 6.33409 15.054 6.38657H15.019C13.8471 6.48277 12.0717 7.08624 11.0747 7.70718L10.9785 7.76841C10.8211 7.86461 10.5499 7.86461 10.3837 7.76841L10.2438 7.68095C9.25555 7.06 7.48016 6.47402 6.30824 6.37781C5.64356 6.32534 5.10132 6.82386 5.10132 7.48854V14.2227C5.10132 14.7562 5.53859 15.2635 6.07208 15.3247L6.2295 15.351C7.43641 15.5084 9.30805 16.1293 10.375 16.7153L10.4012 16.724C10.5499 16.8115 10.7948 16.8115 10.9347 16.724C12.0017 16.1293 13.882 15.5171 15.0977 15.351L15.2814 15.3247C15.8236 15.2635 16.2609 14.765 16.2609 14.2227Z" stroke="#191D31" stroke-width="1.31186" stroke-linecap="round" stroke-linejoin="round"/>
<path d="M10.6812 7.95215V16.3131" stroke="#191D31" stroke-width="1.31186" stroke-linecap="round" stroke-linejoin="round"/>
</svg>
