<svg width="22" height="22" viewBox="0 0 22 22" fill="none" xmlns="http://www.w3.org/2000/svg">
<path d="M17.8322 7.59915C17.9586 7.15583 17.986 6.69016 17.9125 6.23508C17.839 5.78 17.6664 5.34663 17.4069 4.96562C17.1474 4.58461 16.8073 4.26528 16.4108 4.03019C16.0143 3.79511 15.5709 3.65003 15.1122 3.60521C14.9281 3.07701 14.5843 2.61909 14.1285 2.29485C13.6727 1.97061 13.1274 1.79608 12.568 1.79541C11.9033 1.79766 11.2633 2.04728 10.7726 2.49563C10.2819 2.04728 9.64184 1.79766 8.97715 1.79541C7.80922 1.79541 6.81365 2.54141 6.4411 3.60431C5.9815 3.64801 5.53714 3.79231 5.13956 4.02698C4.74197 4.26165 4.4009 4.58094 4.14053 4.96219C3.88017 5.34344 3.70689 5.77732 3.63299 6.23304C3.5591 6.68876 3.58639 7.15516 3.71294 7.59915C3.13663 7.90577 2.65408 8.36268 2.31648 8.9214C1.97887 9.48011 1.79882 10.1198 1.79541 10.7726C1.79541 11.7376 2.17963 12.6452 2.84754 13.3149C2.74534 13.6551 2.69332 14.0083 2.69313 14.3635C2.69313 16.1203 3.96071 17.5863 5.66098 17.8951C5.91059 18.4467 6.31365 18.9149 6.82207 19.2438C7.33049 19.5727 7.92279 19.7483 8.52829 19.7498C9.40716 19.7498 10.2016 19.3844 10.7726 18.7991C11.064 19.0997 11.4128 19.3387 11.7983 19.502C12.1838 19.6653 12.5982 19.7496 13.0169 19.7498C13.6213 19.7486 14.2127 19.5737 14.7204 19.2458C15.2282 18.9179 15.6309 18.4509 15.8806 17.9005C16.3815 17.8122 16.8579 17.6186 17.2785 17.3326C17.6991 17.0466 18.0542 16.6746 18.3204 16.2413C18.5867 15.8079 18.758 15.323 18.823 14.8186C18.888 14.3141 18.8453 13.8016 18.6976 13.3149C19.0314 12.981 19.2961 12.5847 19.4767 12.1484C19.6572 11.7122 19.75 11.2447 19.7498 10.7726C19.7464 10.1198 19.5663 9.48011 19.2287 8.9214C18.8911 8.36268 18.4085 7.90577 17.8322 7.59915ZM8.52829 17.9543C7.89002 17.9543 7.33433 17.5019 7.20865 16.8789L7.01833 16.1589H6.284C5.29382 16.1589 4.48856 15.3536 4.48856 14.3635C4.48856 14.0475 4.56487 13.7512 4.71569 13.4828L5.12505 12.7503L4.42123 12.2924C4.16699 12.1285 3.95781 11.9036 3.81277 11.6381C3.66772 11.3726 3.59143 11.0751 3.59085 10.7726C3.59085 9.89552 4.2399 9.13515 5.10081 9.00229L6.62064 8.76888L5.66996 7.56055C5.50066 7.34229 5.40247 7.0773 5.38869 6.80142C5.3749 6.52554 5.44618 6.25208 5.59288 6.01803C5.73958 5.78397 5.95462 5.60062 6.20892 5.49277C6.46322 5.38492 6.74451 5.35778 7.01474 5.41501L8.07943 5.57211V4.48856C8.07943 4.25047 8.17401 4.02214 8.34237 3.85378C8.51072 3.68543 8.73906 3.59085 8.97715 3.59085C9.21524 3.59085 9.44358 3.68543 9.61193 3.85378C9.78029 4.02214 9.87487 4.25047 9.87487 4.48856V16.6078C9.87487 17.3502 9.27071 17.9543 8.52829 17.9543ZM17.1239 12.2915L16.4201 12.7494L16.8295 13.4819C16.9803 13.7512 17.0566 14.0475 17.0566 14.3635C17.0566 15.3536 16.2514 16.1589 15.2163 16.1589H14.482L14.3365 16.8789C14.2738 17.1825 14.1083 17.4553 13.8679 17.6512C13.6275 17.8471 13.327 17.9541 13.0169 17.9543C12.2745 17.9543 11.6703 17.3502 11.6703 16.6078V4.48856C11.6703 3.99302 12.0725 3.59085 12.568 3.59085C13.0636 3.59085 13.4657 3.99302 13.4657 4.53345V5.61699L14.5304 5.41501C14.8007 5.35778 15.082 5.38492 15.3363 5.49277C15.5906 5.60062 15.8056 5.78397 15.9523 6.01803C16.099 6.25208 16.1703 6.52554 16.1565 6.80142C16.1427 7.0773 16.0445 7.34229 15.8752 7.56055L14.9245 8.76978L16.4444 9.00319C16.8649 9.07128 17.2476 9.28658 17.5242 9.61066C17.8008 9.93474 17.9532 10.3465 17.9543 10.7726C17.9543 11.3857 17.6437 11.9531 17.1239 12.2915Z" fill="#5651F9"/>
</svg>
