<svg width="136" height="114" viewBox="0 0 136 114" fill="none" xmlns="http://www.w3.org/2000/svg">
<path d="M103.035 114C98.7185 114.004 94.4435 113.16 90.4548 111.516C86.4661 109.871 82.8419 107.459 79.7897 104.418C76.7374 101.376 74.3171 97.7647 72.6671 93.7899C71.0171 89.8152 70.1698 85.5551 70.1738 81.2537C70.1677 75.2136 71.8405 69.2899 75.0067 64.1394C78.173 58.989 82.7089 54.813 88.1114 52.0748C92.0276 50.0893 96.303 48.905 100.686 48.5915C105.068 48.2781 109.469 48.8419 113.63 50.2497C120.998 52.7519 127.236 57.7791 131.233 64.4361C135.229 71.0932 136.724 78.9476 135.453 86.6007C134.181 94.2537 130.224 101.208 124.287 106.226C118.351 111.244 110.819 113.999 103.035 114ZM103.035 49.7915C98.0498 49.7769 93.1335 50.9519 88.6974 53.2185C84.8197 55.1871 81.3923 57.9334 78.6304 61.2848C75.8685 64.6361 73.8316 68.5203 72.6477 72.6935C71.4638 76.8666 71.1584 81.2386 71.7507 85.5349C72.343 89.8313 73.8202 93.9592 76.0895 97.6596C78.3589 101.36 81.3714 104.553 84.9379 107.038C88.5045 109.523 92.548 111.246 96.8148 112.1C101.082 112.954 105.479 112.919 109.732 111.999C113.985 111.078 118.001 109.292 121.527 106.751C123.233 105.525 124.809 104.131 126.234 102.59C130.4 98.0976 133.162 92.4923 134.18 86.4602C135.198 80.4282 134.429 74.2311 131.967 68.6278C129.505 63.0245 125.457 58.2583 120.318 54.9127C115.18 51.5671 109.173 49.7874 103.035 49.7915Z" fill="#F0F0F0"/>
<path d="M31.8298 52.1918C32.7318 52.3045 33.5981 52.6129 34.3675 53.0953C35.137 53.5777 35.7909 54.2223 36.2833 54.9838C36.7757 55.7453 37.0945 56.6051 37.2174 57.5027C37.3402 58.4003 37.2641 59.3138 36.9944 60.1789L47.9125 69.2416L44.0041 77.1965L28.7659 64.1824C27.3376 63.6345 26.1606 62.5835 25.4579 61.2286C24.7552 59.8737 24.5757 58.309 24.9533 56.8309C25.331 55.3529 26.2396 54.0643 27.507 53.2093C28.7744 52.3543 30.3125 51.9922 31.8298 52.1918Z" fill="#FFB6B6"/>
<path d="M133.8 89.9853C133.581 87.6397 132.676 83.4231 131.908 81.8639C129.547 75.7051 114.289 70.6433 112.241 69.9908L111.721 64.2334L90.5222 61.9604L87.8331 69.323L80.23 72.1653C79.7138 72.3571 79.2466 72.6604 78.8619 73.0534C78.4772 73.4464 78.1845 73.9193 78.0049 74.4383L71.1835 76.4031L64.4524 78.3422L41.0673 61.9219L39.9632 62.641L32.5836 67.4395L31.4451 68.1801L61.7075 95.3874L72.949 92.7591L81.4027 90.7772L82.1242 93.6966L80.2558 103.953C85.6692 109.349 92.8349 112.647 100.468 113.255C108.1 113.863 115.701 111.741 121.906 107.27L126.708 103.024C130.055 99.4174 132.526 95.0926 133.929 90.3834L133.8 89.9853Z" fill="#E4E4E4"/>
<path d="M107.782 57.2513C115.784 54.6111 120.124 46.0061 117.474 38.0316C114.825 30.0571 106.19 25.7329 98.1872 28.3732C90.1848 31.0134 85.8454 39.6184 88.4949 47.5929C91.1444 55.5674 99.7795 59.8916 107.782 57.2513Z" fill="#FFB6B6"/>
<path d="M90.9286 25.4733C92.4124 23.3617 94.6392 21.8836 97.1664 21.3328C99.6652 20.8207 102.266 21.296 104.42 22.6586C106.761 21.7185 109.287 21.0948 111.767 21.4118C114.248 21.7289 116.68 23.1098 117.828 25.3848C118.069 25.9741 118.362 26.5411 118.703 27.0793C119.715 28.4239 121.594 28.5983 123.254 28.6629C122.415 29.1506 121.575 29.6383 120.736 30.126C121.572 30.5144 122.409 30.9028 123.246 31.2913C122.107 31.7244 120.969 32.1575 119.83 32.5906C122.48 34.9116 123.121 39.0424 122.117 42.5056C121.168 45.7844 118.99 48.5446 116.558 50.9077C116.083 49.1444 116.605 47.2328 116.953 45.4073C117.32 43.4784 117.379 41.223 116.023 39.8612C115.109 38.9426 113.768 38.6651 112.504 38.4422C106.125 37.3181 99.6876 36.5564 93.2223 36.1608C92.357 36.0417 91.4756 36.1313 90.6523 36.4223C89.0789 37.119 88.4467 39.0324 87.9908 40.729C87.7724 37.751 87.9469 34.7574 88.5098 31.8247C88.9411 29.5801 89.6205 27.3335 90.9286 25.4733Z" fill="#2F2E41"/>
<path d="M51.5663 3.43992H1.94178C1.48449 3.43921 1.04617 3.25768 0.723073 2.9352C0.399976 2.61272 0.218506 2.17566 0.218506 1.71996C0.218506 1.26427 0.399976 0.827203 0.723073 0.504726C1.04617 0.182248 1.48449 0.000718891 1.94178 0H51.5663C52.024 0 52.463 0.18121 52.7867 0.503765C53.1104 0.826321 53.2923 1.2638 53.2923 1.71996C53.2923 2.17612 53.1104 2.6136 52.7867 2.93616C52.463 3.25871 52.024 3.43992 51.5663 3.43992Z" fill="#5651F9"/>
<path d="M80.2178 14.4251H1.94171C1.48397 14.4251 1.04499 14.2439 0.721318 13.9213C0.397652 13.5988 0.21582 13.1613 0.21582 12.7052C0.21582 12.2491 0.397652 11.8116 0.721318 11.4891C1.04499 11.1665 1.48397 10.9854 1.94171 10.9854H80.2178C80.6755 10.9854 81.1145 11.1665 81.4381 11.4891C81.7618 11.8116 81.9436 12.2491 81.9436 12.7052C81.9436 13.1613 81.7618 13.5988 81.4381 13.9213C81.1145 14.2439 80.6755 14.4251 80.2178 14.4251Z" fill="#5651F9"/>
<path d="M65.1756 24.7737H1.94171C1.48397 24.7737 1.04498 24.5925 0.721319 24.27C0.397652 23.9474 0.21582 23.51 0.21582 23.0538C0.21582 22.5977 0.397652 22.1603 0.721319 21.8377C1.04498 21.5152 1.48397 21.334 1.94171 21.334H65.1756C65.6333 21.334 66.0723 21.5152 66.396 21.8377C66.7196 22.1603 66.9015 22.5977 66.9015 23.0538C66.9015 23.51 66.7196 23.9474 66.396 24.27C66.0723 24.5925 65.6333 24.7737 65.1756 24.7737Z" fill="#CACACA"/>
<path d="M37.5988 35.0842H1.94171C1.48397 35.0842 1.04498 34.903 0.721319 34.5805C0.397652 34.258 0.21582 33.8205 0.21582 33.3644C0.21582 32.9083 0.397652 32.4708 0.721319 32.1483C1.04498 31.8257 1.48397 31.6445 1.94171 31.6445H37.5988C38.0566 31.6445 38.4956 31.8257 38.8192 32.1483C39.1429 32.4708 39.3247 32.9083 39.3247 33.3644C39.3247 33.8205 39.1429 34.258 38.8192 34.5805C38.4956 34.903 38.0566 35.0842 37.5988 35.0842Z" fill="#CACACA"/>
<path d="M57.2966 45.3953H1.94166C1.4844 45.3946 1.04613 45.2131 0.723047 44.8906C0.399969 44.5681 0.218506 44.1311 0.218506 43.6754C0.218506 43.2198 0.399969 42.7827 0.723047 42.4603C1.04613 42.1378 1.4844 41.9563 1.94166 41.9556H57.2966C57.7539 41.9563 58.1921 42.1378 58.5152 42.4603C58.8383 42.7827 59.0198 43.2198 59.0198 43.6754C59.0198 44.1311 58.8383 44.5681 58.5152 44.8906C58.1921 45.2131 57.7539 45.3946 57.2966 45.3953Z" fill="#CACACA"/>
</svg>
