<svg width="139" height="97" viewBox="0 0 139 97" fill="none" xmlns="http://www.w3.org/2000/svg">
<path d="M138.9 73.2599C138.9 71.2799 138.91 69.2899 138.91 67.3099V64.96H118.74V68.55C118.74 70.79 118.74 72.98 118.74 75.17C118.74 75.89 118.76 76.66 118.87 77.43C119.45 81.44 122.45 84.19 126.52 84.42C127.06 84.45 127.58 84.46 127.98 84.46H129.12H132.89C132.88 84.63 132.88 84.79 132.87 84.95C132.83 86.15 132.79 87.28 132.66 88.39C132.53 89.51 132.1 89.9599 131.03 90.0899C130.47 90.1499 129.89 90.1899 129.32 90.1899C128.68 90.1899 128.06 90.1499 127.45 90.0699C126.23 89.8999 125.88 89.4799 125.82 88.1199C125.81 87.7699 125.81 87.4199 125.82 87.0599C125.82 86.8699 125.82 86.69 125.82 86.49V85.3699H119.98L119.84 86.3399C119.17 91.0999 121.7 94.97 126.15 95.96C127.07 96.16 128.02 96.2799 128.99 96.3199C129.16 96.3199 129.33 96.33 129.5 96.33C132.33 96.33 134.8 95.4 136.48 93.7C138.11 92.04 138.96 89.71 138.92 86.95C138.86 82.37 138.88 77.7399 138.9 73.2599ZM132.81 78.43C132.41 78.42 132 78.4 131.59 78.39C129.64 78.33 127.62 78.2599 125.66 78.0999C125.25 78.0699 125.02 77.64 125 77.24C124.95 75.56 124.96 73.9099 124.97 72.1599C124.97 71.8299 124.97 71.4899 124.98 71.1499H132.81V78.43Z" fill="#5651F9"/>
<path d="M51.06 80.4C50.91 80.39 50.78 80.38 50.65 80.37C49.2 80.29 48.89 79.98 48.79 78.55C48.73 77.6 48.72 76.62 48.72 75.67V75.53C48.72 73.34 48.72 71.14 48.72 68.89V65.06H47.6C46.38 65.06 45.19 65.05 44 65.04C42.83 65.03 41.66 65.02 40.51 65.02C38.72 65.02 37.25 65.05 35.88 65.1C32.28 65.25 29.34 67.79 28.74 71.27C28.37 73.38 28.4 75.55 28.43 77.64L28.44 78.53C28.48 82.31 31.32 85.61 35.05 86.21C36.14 86.39 37.23 86.4 38.28 86.41C38.69 86.41 39.09 86.42 39.5 86.43C39.68 86.44 39.86 86.44 40.04 86.44C42.3 86.44 44.16 85.9 45.69 84.78C47.09 85.87 48.71 86.42 50.53 86.42C50.79 86.42 51.05 86.41 51.32 86.38L52.05 86.32V80.46L51.06 80.4ZM42.5 79.13C42.48 79.9 42.24 80.14 41.45 80.21C40.38 80.3 39.34 80.34 38.35 80.34C37.55 80.34 36.76 80.31 36.01 80.25C35.03 80.18 34.64 79.78 34.58 78.8C34.46 76.7 34.47 74.59 34.6 72.54C34.66 71.64 35.18 71.17 36.16 71.15C37.15 71.13 38.15 71.12 39.14 71.12C39.87 71.12 40.61 71.12 41.35 71.13C41.74 71.13 42.13 71.13 42.53 71.14C42.53 71.68 42.54 72.21 42.54 72.74C42.55 74.93 42.56 77.02 42.5 79.13Z" fill="#5651F9"/>
<path d="M20.0099 80.8799C18.8299 80.8799 17.2799 80.8699 15.7099 80.8399C15.1699 80.8299 14.4599 80.7399 14.1399 80.3099C13.9499 80.0699 13.8699 79.6899 13.8799 79.2099H26.7599V64.9899H25.6399C24.5899 64.9899 23.5399 64.9699 22.4999 64.9499C21.4499 64.9299 20.4099 64.9099 19.3799 64.9099C17.8499 64.9099 16.5999 64.9499 15.4199 65.0399C10.8599 65.3899 7.98987 68.5699 7.94987 73.3499L7.93987 73.9699C7.91987 75.7499 7.90987 77.5799 7.98987 79.3999C8.17987 83.4799 10.9699 86.3999 14.9499 86.6399C16.9599 86.7599 18.9299 86.7899 21.2899 86.7899H23.8199C24.4299 86.7899 25.0299 86.7899 25.6399 86.7899H27.0599V80.8599L20.0099 80.8799ZM13.8999 72.2799C14.0299 71.1799 14.9799 70.9699 15.5299 70.9399C16.2699 70.9099 17.0699 70.8899 18.0499 70.8899C18.6799 70.8899 19.3199 70.8899 19.9699 70.8999C20.2699 70.8999 20.5699 70.8999 20.8699 70.9099V74.0899H13.8699C13.8499 73.4599 13.8399 72.8599 13.8999 72.2799Z" fill="#5651F9"/>
<path d="M111.88 86.4V84.08C111.88 82.99 111.87 81.9 111.87 80.82C111.87 78.26 111.86 75.61 111.82 73.01C111.8 71.62 111.37 71.19 109.97 71.15C109.14 71.13 108.31 71.12 107.47 71.12C106.83 71.12 106.18 71.12 105.52 71.13C105.21 71.13 104.9 71.13 104.58 71.13V86.37H98.5V65.01H99.62C100.19 65.01 100.76 65.01 101.33 65C101.9 65 102.46 64.99 103.03 64.99C103.75 64.99 104.47 64.99 105.19 65.01C105.67 65.02 106.16 65.02 106.64 65.03C108.24 65.04 109.89 65.06 111.52 65.31C115.11 65.86 117.64 68.56 117.82 72.03C117.98 75.1 117.94 78.24 117.91 81.27C117.89 82.59 117.88 83.93 117.88 85.27V86.39H111.88V86.4Z" fill="#5651F9"/>
<path d="M81.8699 86.35V81.47C81.8699 79.02 81.8799 76.57 81.8599 74.11C81.8599 73.52 81.7699 72.87 81.6199 72.16C81.4899 71.56 81.0899 71.24 80.4399 71.21C79.5899 71.17 78.6599 71.16 77.5099 71.16C76.8299 71.16 76.1499 71.17 75.4499 71.17C75.0999 71.17 74.7499 71.18 74.3999 71.18V86.35H68.3599V65.13L69.4299 65.08L69.8299 65.06C70.1299 65.04 70.4099 65.03 70.6999 65.03H71.1999C71.9199 65.03 72.6499 65.03 73.3699 65.02C74.0999 65.02 74.8199 65.01 75.5499 65.01C77.2799 65.01 78.6099 65.03 79.8499 65.08C84.5899 65.27 87.6499 68.27 87.8299 72.92C87.9399 75.76 87.9099 78.66 87.8899 81.46C87.8799 82.71 87.8699 83.97 87.8699 85.24V86.36H81.8699V86.35Z" fill="#5651F9"/>
<path d="M67.0199 65.0601V71.1301H59.4699V86.3701H53.3799V65.0601H67.0199Z" fill="#5651F9"/>
<path d="M96.0501 66.8401H90.0901V86.3501H96.0501V66.8401Z" fill="#5651F9"/>
<path d="M97.2301 61.0399L93.2001 65.0599L89.0901 60.9499L90.8601 59.1899L93.1201 56.9199L95.3801 59.1899L97.2301 61.0399Z" fill="#5651F9"/>
<path d="M97.2301 61.0399L93.2001 65.0599L89.0901 60.9499L90.8601 59.1899L93.1201 56.9199L95.3801 59.1899L97.2301 61.0399Z" fill="#5651F9"/>
<path d="M137.81 40.24C136.73 40.24 135.68 40.2399 134.61 40.2199C133.56 40.2199 132.52 40.21 131.47 40.21C129.8 40.21 128.43 40.23 127.16 40.27C124.47 40.36 122.3 41.7799 121.22 44.1499C120.61 45.5099 120.2 47.09 119.95 49.14C119.81 50.32 119.83 51.52 119.87 52.68C119.87 52.82 119.87 52.9499 119.88 53.0999H25.46V59.11L26.57 59.1199C27.32 59.1299 30.12 59.14 34.42 59.14C35.89 59.14 37.54 59.14 39.34 59.14C39.95 59.02 40.52 58.84 41.1 58.67C41.53 58.53 41.9599 58.3999 42.3699 58.3099C42.4 58.2999 42.47 58.2899 42.56 58.2899C42.65 58.2899 42.75 58.2999 42.84 58.3199C43.21 58.4099 43.5999 58.54 44.0099 58.68C44.5699 58.85 45.14 59.0399 45.75 59.1499H48.6799C59.1399 59.1599 72.24 59.1599 85.61 59.1599H88.58L93.1199 54.6199L97.66 59.1599C110.58 59.1599 122.53 59.1599 129.8 59.1499H138.93V40.2199H137.81V40.24ZM132.93 53.11L126.45 53.0999C126.23 53.0999 126.11 53.0799 126.06 53.0599C126.05 53.0099 126.04 52.9199 126.04 52.7599C126.09 51.9399 126.09 51.1199 126.09 50.3199C126.09 49.5899 126.09 48.8299 126.11 48.0999C126.15 47.3399 126.44 46.41 127.62 46.33C128.35 46.28 129.14 46.2599 130.11 46.2599C130.74 46.2599 131.38 46.2699 132.02 46.2799C132.32 46.2799 132.62 46.2799 132.92 46.2899V53.11H132.93Z" fill="#5651F9"/>
<path d="M138.16 32.55H132.38V38.2401H138.16V32.55Z" fill="#5651F9"/>
<path d="M129.66 32.53H123.93V38.26H129.66V32.53Z" fill="#5651F9"/>
<path d="M24.34 40.85C23.26 40.85 22.2 40.83 21.14 40.81C20.08 40.79 19.03 40.77 17.99 40.77C16.44 40.77 15.17 40.81 13.98 40.91C9.47 41.27 6.49 44.56 6.38 49.29C6.34 51.01 6.34 52.51 6.38 53.9C6.38 54.02 6.38 54.1 6.37 54.13C6.34 54.15 6.29 54.18 6.18 54.23C3.78 55.25 2.06 57.02 1.07 59.49C0.0599997 61.98 0.0300018 72.57 0.0800018 84.13C0.0900018 87.2 0.0999976 89.62 0.0599976 90.56L0 91.74H6.16V89.76C6.16 72.21 6.16 69.36 6.16 69.22C6.17 68.63 6.17 68.04 6.17 67.46C6.17 66.16 6.17 64.81 6.25 63.52C6.41 60.94 7.54 59.74 10.14 59.36C10.82 59.26 11.56 59.21 12.41 59.21H14.15C15.35 59.21 20.15 59.22 21.35 59.22C22.54 59.22 23.95 59.22 25.45 59.21V40.88H24.34V40.85ZM19.25 53.04H12.44C12.44 52.84 12.44 52.64 12.43 52.44C12.42 51.18 12.41 49.99 12.46 48.8C12.52 47.61 13.15 46.99 14.35 46.96C15.12 46.94 15.89 46.94 16.67 46.94C17.27 46.94 17.87 46.94 18.48 46.95C18.73 46.95 18.99 46.95 19.25 46.95V53.04Z" fill="#5651F9"/>
<path d="M48.6799 59.1701V53.1001C47.1999 53.0901 45.7299 53.0901 44.2399 53.0901H42.3099C39.6599 53.0801 37.0299 53.0801 34.3799 53.0701V53.1001C34.3899 55.1201 34.4099 57.1301 34.4199 59.1501C35.8899 59.1601 37.5399 59.1601 39.3399 59.1601C39.3499 59.1601 39.3499 59.1601 39.3499 59.1601C39.9599 59.0401 40.5399 58.8601 41.1099 58.6901C41.5499 58.5601 41.9699 58.4201 42.3799 58.3301C42.4099 58.3201 42.4799 58.3101 42.5699 58.3101C42.6599 58.3101 42.7599 58.3201 42.8499 58.3401C43.2299 58.4401 43.6099 58.5601 44.0199 58.6901C44.5799 58.8701 45.1499 59.0601 45.7599 59.1701H48.6799Z" fill="#5651F9"/>
<path d="M61.4599 8.79004C61.2699 8.97004 61.0799 9.15003 60.8899 9.34003C48.6599 21.38 44.7999 46.68 43.9899 53.1H42.1099C42.8699 46.12 46.4899 22.16 60.9699 9.23004C61.1399 9.07004 61.2999 8.93004 61.4599 8.79004Z" fill="#5651F9"/>
<path d="M40.9501 51.7C40.9501 51.7 44.1801 19.1 62.9401 6.59C67.0101 2.25 68.68 0 68.68 0C68.68 0 54.76 2.05999 47.15 15.87C46.73 16.98 46.0801 22.9 46.0801 22.9L45.4901 17.45C45.4901 17.44 36.6501 24.59 40.9501 51.7Z" fill="#5651F9"/>
<path d="M45.3501 51.69C45.3501 51.69 49.0601 24.06 62.9401 6.59C65.2801 2.83 68.6801 0 68.6801 0C68.6801 0 60.4401 20.56 57.2601 24.35C61.0001 20.77 63.0301 18.6 63.0301 18.6C63.0301 18.6 57.8701 37.08 45.3501 51.69Z" fill="#5651F9"/>
</svg>
