<svg width="32" height="41" viewBox="0 0 32 41" fill="none" xmlns="http://www.w3.org/2000/svg">
<path d="M10.7659 21.782C10.8212 21.8372 10.8867 21.881 10.9589 21.9109C11.0311 21.9408 11.1085 21.9562 11.1866 21.9562C11.2647 21.9562 11.3421 21.9408 11.4143 21.9109C11.4864 21.881 11.552 21.8372 11.6073 21.782L16.2891 17.1002L16.7099 17.5211C16.8608 17.6719 17.0655 17.7567 17.2789 17.7567C17.4923 17.7567 17.697 17.6719 17.8479 17.5211L18.863 16.5058C17.8835 15.526 17.3333 14.1972 17.3334 12.8117C17.3335 11.4262 17.8839 10.0975 18.8635 9.11769C19.8431 8.13794 21.1718 7.58738 22.5573 7.58709C23.9427 7.5868 25.2716 8.13681 26.2516 9.11616L26.2522 9.11669L27.2674 8.10147C27.4183 7.95056 27.503 7.7459 27.503 7.5325C27.503 7.3191 27.4183 7.11444 27.2674 6.96354L26.8465 6.54268L29.1205 4.26891C29.2321 4.15733 29.2947 4.00601 29.2947 3.84822C29.2947 3.69044 29.2321 3.53911 29.1205 3.42754L26.6626 0.969661C26.6074 0.914417 26.5418 0.870595 26.4696 0.840697C26.3974 0.810799 26.32 0.79541 26.2419 0.79541C26.1638 0.79541 26.0864 0.810799 26.0142 0.840697C25.9421 0.870595 25.8765 0.914417 25.8212 0.969661L23.5474 3.24356L23.1266 2.8227C23.0519 2.74795 22.9632 2.68865 22.8656 2.64819C22.768 2.60773 22.6633 2.58691 22.5576 2.58691C22.452 2.58691 22.3473 2.60773 22.2497 2.64819C22.1521 2.68865 22.0634 2.74795 21.9887 2.8227L12.5691 12.2423C12.4182 12.3932 12.3334 12.5978 12.3334 12.8112C12.3334 13.0246 12.4182 13.2293 12.5691 13.3802L12.9898 13.8011L8.30797 18.4828C8.19644 18.5944 8.13379 18.7457 8.13379 18.9034C8.13379 19.0612 8.19644 19.2125 8.30797 19.324L10.7659 21.782Z" fill="white"/>
<path d="M24.735 10.6339C24.3043 10.2032 23.7556 9.90993 23.1583 9.79111C22.5609 9.67228 21.9417 9.73327 21.379 9.96634C20.8163 10.1994 20.3354 10.5941 19.997 11.1005C19.6586 11.607 19.478 12.2023 19.478 12.8114C19.478 13.4205 19.6586 14.0158 19.997 14.5223C20.3354 15.0287 20.8163 15.4234 21.379 15.6564C21.9417 15.8895 22.5609 15.9505 23.1583 15.8317C23.7556 15.7129 24.3043 15.4196 24.735 14.9889C25.3125 14.4114 25.6369 13.6281 25.6369 12.8114C25.6369 11.9947 25.3125 11.2114 24.735 10.6339Z" fill="white"/>
<path d="M27.3984 32.3425C29.8475 29.8971 31.2472 26.5936 31.3006 23.133C31.3539 19.6725 30.0567 16.3274 27.6841 13.8076C27.5349 14.5806 27.2125 15.3098 26.7412 15.9404C26.2698 16.5711 25.6618 17.0868 24.9627 17.4489C25.7609 18.4691 26.3262 19.6515 26.6191 20.9132C26.9121 22.1749 26.9255 23.4855 26.6585 24.753C26.3916 26.0205 25.8506 27.2142 25.0736 28.2506C24.2965 29.2869 23.3022 30.1408 22.1604 30.7523L25.6388 33.8099C26.2661 33.3718 26.8547 32.8809 27.3984 32.3425Z" fill="white"/>
<path d="M8.54894 32.3428C9.09254 32.8811 9.68119 33.372 10.3085 33.8101L13.7985 30.7422C13.1278 30.3844 12.5056 29.9423 11.9468 29.4268H14.673C14.8247 29.4268 14.9702 29.3665 15.0774 29.2592C15.1847 29.152 15.2449 29.0065 15.2449 28.8548V27.1389C15.2449 26.9872 15.1847 26.8417 15.0774 26.7344C14.9702 26.6272 14.8247 26.5669 14.673 26.5669H1.5173C1.44218 26.5669 1.36781 26.5817 1.29841 26.6104C1.22901 26.6392 1.16596 26.6813 1.11284 26.7344C1.05973 26.7875 1.0176 26.8506 0.988852 26.92C0.960107 26.9894 0.945312 27.0638 0.945312 27.1389V28.8548C0.945312 28.9299 0.960107 29.0043 0.988852 29.0737C1.0176 29.1431 1.05973 29.2061 1.11284 29.2592C1.16596 29.3123 1.22901 29.3545 1.29841 29.3832C1.36781 29.412 1.44218 29.4268 1.5173 29.4268H6.35068C6.94608 30.4951 7.68579 31.4763 8.54894 32.3428Z" fill="white"/>
<path d="M29.058 37.2592H26.3141L20.0154 31.7224C19.451 31.2263 18.7252 30.9526 17.9736 30.9526C17.2221 30.9526 16.4963 31.2263 15.9318 31.7224L9.63298 37.2592H6.88912C6.51047 37.2592 6.14734 37.4096 5.87959 37.6774C5.61185 37.9451 5.46143 38.3082 5.46143 38.6869V38.6913C5.46141 38.8787 5.49833 39.0644 5.57007 39.2376C5.64181 39.4109 5.74697 39.5683 5.87955 39.7009C6.01212 39.8335 6.16952 39.9386 6.34274 40.0104C6.51596 40.0822 6.70162 40.1191 6.88912 40.1191H29.058C29.2455 40.1191 29.4312 40.0822 29.6044 40.0104C29.7776 39.9387 29.9351 39.8335 30.0676 39.7009C30.2002 39.5683 30.3054 39.4109 30.3772 39.2377C30.4489 39.0644 30.4858 38.8788 30.4858 38.6913V38.6869C30.4858 38.4994 30.4489 38.3137 30.3771 38.1405C30.3054 37.9673 30.2002 37.8099 30.0676 37.6773C29.935 37.5447 29.7776 37.4396 29.6044 37.3678C29.4311 37.2961 29.2455 37.2592 29.058 37.2592Z" fill="white"/>
</svg>
