<svg width="27" height="35" viewBox="0 0 27 35" fill="none" xmlns="http://www.w3.org/2000/svg">
<path d="M8.66691 18.5212C8.71567 18.57 8.77355 18.6087 8.83725 18.6351C8.90095 18.6614 8.96922 18.675 9.03817 18.675C9.10712 18.675 9.1754 18.6614 9.2391 18.6351C9.3028 18.6087 9.36068 18.57 9.40943 18.5212L13.5413 14.3894L13.9127 14.7609C14.0459 14.894 14.2265 14.9688 14.4148 14.9688C14.6031 14.9688 14.7838 14.894 14.9169 14.7609L15.8128 13.8649C14.9484 13.0001 14.4629 11.8274 14.4629 10.6047C14.463 9.38195 14.9487 8.20931 15.8133 7.34465C16.6778 6.47999 17.8504 5.9941 19.0731 5.99385C20.2958 5.99359 21.4686 6.47899 22.3335 7.3433L22.334 7.34376L23.2299 6.4478C23.3631 6.31462 23.4379 6.134 23.4379 5.94567C23.4379 5.75734 23.3631 5.57672 23.2299 5.44355L22.8585 5.07213L24.8653 3.06546C24.9638 2.96699 25.0191 2.83345 25.0191 2.69419C25.0191 2.55494 24.9638 2.4214 24.8653 2.32293L22.6962 0.153781C22.6474 0.105027 22.5896 0.0663524 22.5259 0.0399666C22.4622 0.0135808 22.3939 0 22.3249 0C22.256 0 22.1877 0.0135808 22.124 0.0399666C22.0603 0.0663524 22.0024 0.105027 21.9537 0.153781L19.9469 2.16056L19.5756 1.78914C19.5097 1.72317 19.4314 1.67084 19.3452 1.63513C19.2591 1.59942 19.1667 1.58105 19.0734 1.58105C18.9802 1.58105 18.8878 1.59942 18.8017 1.63513C18.7155 1.67084 18.6372 1.72317 18.5713 1.78914L10.2583 10.1022C10.1251 10.2354 10.0503 10.416 10.0503 10.6043C10.0503 10.7926 10.1251 10.9733 10.2583 11.1064L10.6296 11.4778L6.49772 15.6097C6.39929 15.7081 6.34399 15.8416 6.34399 15.9808C6.34399 16.1201 6.39929 16.2536 6.49772 16.352L8.66691 18.5212Z" fill="#D4604C"/>
<path d="M20.9951 8.68272C20.6151 8.30264 20.1308 8.0438 19.6036 7.93894C19.0764 7.83408 18.53 7.8879 18.0334 8.09359C17.5368 8.29929 17.1124 8.64763 16.8137 9.09455C16.5151 9.54148 16.3557 10.0669 16.3557 10.6044C16.3557 11.1419 16.5151 11.6674 16.8137 12.1143C17.1124 12.5612 17.5368 12.9096 18.0334 13.1153C18.53 13.321 19.0764 13.3748 19.6036 13.2699C20.1308 13.1651 20.6151 12.9062 20.9951 12.5261C21.5048 12.0165 21.7911 11.3252 21.7911 10.6044C21.7911 9.88366 21.5048 9.19241 20.9951 8.68272Z" fill="#D4604C"/>
<path d="M23.3455 27.8415C25.5069 25.6833 26.7423 22.7679 26.7894 19.7138C26.8365 16.6598 25.6916 13.7077 23.5978 11.4839C23.466 12.1661 23.1815 12.8096 22.7656 13.3662C22.3496 13.9227 21.813 14.3778 21.196 14.6974C21.9004 15.5977 22.3993 16.6412 22.6579 17.7548C22.9164 18.8683 22.9283 20.0249 22.6926 21.1435C22.457 22.2621 21.9796 23.3156 21.2938 24.2302C20.6081 25.1448 19.7306 25.8984 18.7229 26.4381L21.7927 29.1364C22.3463 28.7499 22.8658 28.3166 23.3455 27.8415Z" fill="#D4604C"/>
<path d="M6.71041 27.8415C7.19016 28.3166 7.70966 28.7499 8.26325 29.1365L11.3433 26.429C10.7514 26.1132 10.2022 25.7231 9.70917 25.2681H12.1151C12.2489 25.2681 12.3773 25.2149 12.472 25.1202C12.5666 25.0255 12.6198 24.8972 12.6198 24.7633V23.2489C12.6198 23.1151 12.5666 22.9867 12.472 22.892C12.3773 22.7973 12.2489 22.7442 12.1151 22.7441H0.504795C0.438504 22.7441 0.372862 22.7572 0.311618 22.7826C0.250373 22.8079 0.194725 22.8451 0.14785 22.892C0.100976 22.9389 0.0637932 22.9945 0.0384249 23.0558C0.0130566 23.117 0 23.1826 0 23.2489V24.7633C0 24.8295 0.0130566 24.8952 0.0384249 24.9564C0.0637932 25.0177 0.100976 25.0733 0.14785 25.1202C0.194725 25.1671 0.250373 25.2043 0.311618 25.2296C0.372862 25.255 0.438504 25.2681 0.504795 25.2681H4.77039C5.29585 26.2109 5.94866 27.0768 6.71041 27.8415Z" fill="#D4604C"/>
<path d="M24.8102 32.1805H22.3887L16.8299 27.2941C16.3318 26.8562 15.6912 26.6147 15.028 26.6147C14.3647 26.6147 13.7242 26.8562 13.226 27.2941L7.66711 32.1805H5.24558C4.91141 32.1805 4.59093 32.3132 4.35464 32.5495C4.11835 32.7858 3.9856 33.1063 3.9856 33.4404V33.4443C3.98558 33.6098 4.01817 33.7736 4.08148 33.9265C4.14479 34.0794 4.2376 34.2183 4.3546 34.3353C4.4716 34.4523 4.6105 34.5451 4.76338 34.6085C4.91625 34.6718 5.0801 34.7044 5.24558 34.7044H24.8102C24.9757 34.7044 25.1396 34.6718 25.2925 34.6085C25.4454 34.5452 25.5843 34.4524 25.7013 34.3354C25.8183 34.2183 25.9111 34.0794 25.9744 33.9265C26.0378 33.7736 26.0704 33.6098 26.0704 33.4443V33.4404C26.0703 33.275 26.0377 33.1111 25.9744 32.9582C25.9111 32.8054 25.8183 32.6665 25.7012 32.5495C25.5842 32.4325 25.4453 32.3397 25.2924 32.2763C25.1395 32.213 24.9757 32.1804 24.8102 32.1805Z" fill="#D4604C"/>
</svg>
