<svg width="152" height="149" viewBox="0 0 152 149" fill="none" xmlns="http://www.w3.org/2000/svg">
<path d="M22.2635 135.526C51.9423 153.491 100.061 153.491 129.74 135.526C159.418 117.56 159.422 88.4382 129.74 70.4727C100.057 52.5071 51.9423 52.5112 22.26 70.4727C-7.42234 88.4341 -7.41881 117.556 22.2635 135.526Z" fill="#F5F5F5" fill-opacity="0.2"/>
<path d="M68.7373 119.739C77.9368 124.123 92.8484 124.123 102.028 119.739C111.207 115.354 111.227 108.25 102.028 103.865C92.8281 99.4805 77.9205 99.4805 68.7373 103.865C59.554 108.25 59.5215 115.358 68.7373 119.739Z" fill="#EBEBEB"/>
<path d="M148.374 108.887L115.49 127.867C114.937 128.146 114.285 128.146 113.732 127.867L72.6266 104.125C72.4092 104.051 72.2629 103.847 72.2629 103.617C72.2629 103.388 72.4092 103.184 72.6266 103.11L105.511 84.1304C106.063 83.8504 106.716 83.8504 107.269 84.1304L148.386 107.872C148.603 107.948 148.747 108.154 148.744 108.384C148.741 108.614 148.593 108.816 148.374 108.887Z" fill="#EBEBEB"/>
<path d="M36.9791 107.45C35.8059 107.153 29.5416 103.589 28.9042 103.154C28.2668 102.72 27.0083 101.823 27.0083 100.276C27.0083 98.9079 27.1504 86.0059 28.2709 79.7741C29.0149 75.856 31.3432 72.4187 34.7057 70.2742C38.6031 67.8586 42.5208 66.1089 45.8214 67.4811C49.122 68.8533 52.1343 71.3744 53.4335 74.4193C54.7326 77.4641 55.6217 83.5619 55.7151 85.9206C55.8085 88.2794 55.7151 96.3665 55.7151 97.0851C55.7151 97.8036 55.5852 98.7374 51.7162 101.145C47.8472 103.552 42.5045 106.423 40.8522 107.166C39.6232 107.665 38.2679 107.765 36.9791 107.45Z" fill="#37474F"/>
<path d="M36.0129 71.9509C35.6556 72.1539 34.6244 71.6464 34.4702 71.3906C34.3159 71.1349 34.2753 68.9223 35.0466 67.7003C35.818 66.4783 40.6289 64.2251 41.8184 64.3915C42.7188 64.5382 43.5191 65.0492 44.031 65.8044C44.1771 66.117 44.3395 68.1753 44.031 68.5975C43.7224 69.0197 42.6222 68.3701 42.5248 68.1915C42.4273 68.0129 42.8861 66.5067 42.1188 66.1941C41.4124 65.9099 38.059 67.3349 36.6949 68.4798C36.1022 68.9791 36.1306 70.2173 36.159 70.8304C36.1875 71.4434 36.1915 71.8453 36.0129 71.9509Z" fill="#455A64"/>
<path d="M35.0468 86.4774C35.7369 79.7746 36.9792 75.861 43.5358 72.942C50.0923 70.023 52.6378 72.5076 53.5675 74.7446C54.7855 77.8787 55.6258 83.6436 55.7152 85.9212C55.8085 88.2799 55.7152 96.367 55.7152 97.0856C55.7152 97.8042 55.5852 98.7379 51.7163 101.145C47.8473 103.553 42.5046 106.423 40.8523 107.166C39.6245 107.67 38.2693 107.773 36.9792 107.462C36.7201 107.384 36.4676 107.285 36.2241 107.166C34.182 104.543 34.4134 92.5995 35.0468 86.4774Z" fill="#455A64"/>
<path d="M50.3318 70.3234C48.6185 69.3206 45.8092 68.6589 41.6844 70.498C34.3118 73.7823 32.4403 77.8949 31.6973 85.1132C31.5633 86.4367 31.3644 88.0119 31.2913 89.7048L30.6824 89.3354C30.7676 87.5085 30.9463 85.9455 31.0884 84.5327C31.9003 77.2616 34.0804 73.2424 41.1242 70.1042C45.0256 68.3666 47.5873 68.5939 49.2843 69.4505C49.6488 69.7226 49.9984 70.014 50.3318 70.3234Z" fill="#263238"/>
<path d="M50.5876 70.51C48.8785 69.5072 46.065 68.8455 41.9443 70.6846C34.5677 73.9689 32.6961 78.0815 31.9532 85.2998C31.8192 86.6233 31.6203 88.1985 31.5472 89.8914L30.9382 89.522C31.0235 87.6951 31.2021 86.1321 31.3442 84.7193C32.1562 77.4482 34.3363 73.4249 41.38 70.2908C45.2815 68.5532 47.9122 68.8414 49.6092 69.694C49.9504 69.9474 50.2771 70.2198 50.5876 70.51Z" fill="#455A64"/>
<path d="M48.2004 76.8835L45.9716 75.6087C45.7427 75.4803 45.453 75.5599 45.322 75.7874L43.0363 79.7619C42.9038 79.9896 42.9799 80.2816 43.2068 80.4155L45.4073 81.6984C45.6349 81.831 45.927 81.7548 46.0609 81.5279L48.375 77.529C48.4391 77.4207 48.4567 77.291 48.4238 77.1695C48.3909 77.0479 48.3104 76.9448 48.2004 76.8835Z" fill="#263238"/>
<path d="M45.8092 81.244L48.0056 77.4562C48.0375 77.4015 48.0461 77.3361 48.0293 77.275C48.0125 77.2139 47.9717 77.1621 47.9162 77.1314L45.8863 75.9784C45.7719 75.9142 45.6271 75.954 45.5616 76.0678L43.3896 79.8393C43.3253 79.9538 43.3652 80.0986 43.4789 80.1641L45.4722 81.3292C45.5278 81.3644 45.5953 81.3752 45.6591 81.359C45.7228 81.3429 45.7771 81.3013 45.8092 81.244Z" fill="#455A64"/>
<path d="M46.2802 79.4334C46.3988 79.3616 46.477 79.2384 46.4913 79.1005V77.2857C46.4913 77.168 46.3979 77.1315 46.2802 77.1964C46.1616 77.2682 46.0834 77.3914 46.0691 77.5293V79.3441C46.0691 79.4618 46.1625 79.4983 46.2802 79.4334Z" fill="#37474F"/>
<path d="M45.1027 80.1158C45.2211 80.0419 45.2989 79.9176 45.3138 79.7789V77.9682C45.3138 77.8505 45.2164 77.8099 45.1027 77.8789C44.9831 77.9497 44.9047 78.0735 44.8916 78.2118V80.0265C44.9038 80.1402 44.985 80.1808 45.1027 80.1158Z" fill="#37474F"/>
<path d="M38.0833 92.1445C38.0833 92.1445 39.1875 93.0539 39.9833 96.4804C40.779 99.9069 41.258 104.222 40.3892 104.742C39.5204 105.262 38.266 104.174 37.9534 103.8C37.3119 103.033 37.4702 94.8889 38.0833 92.1445Z" fill="#263238"/>
<path d="M38.0835 92.1444C38.0835 92.1444 39.1878 93.0538 39.9835 96.4803C40.7792 99.9067 41.2583 104.222 40.3895 104.742L53.7868 96.8416C54.6637 96.3219 54.8789 91.7872 54.0872 88.3607C53.5635 86.1075 52.6013 85.0357 52.0086 84.5648C51.7304 84.3499 51.3495 84.3258 51.0464 84.5039L38.0835 92.1444Z" fill="#37474F"/>
<path d="M51.7324 85.0885C52.3738 85.4051 53.4618 86.278 53.9531 88.5961C54.1221 89.2399 53.9094 89.9237 53.405 90.3581C52.9584 90.6748 43.3692 96.1271 42.0985 96.8862C41.0023 97.5399 40.434 96.6711 40.1944 96.1271C39.7885 95.1608 39.4393 94.4098 39.1389 93.8333C38.9095 93.2046 38.5514 92.6307 38.0874 92.1485L50.8636 85.125C51.1291 84.9691 51.4547 84.9554 51.7324 85.0885Z" fill="#263238"/>
<path d="M31.7056 90.2688C31.8911 90.9667 32.0121 91.6802 32.0669 92.4002C32.0669 92.5464 31.868 92.6235 31.8111 92.6235C31.3469 92.5301 30.9171 92.311 30.5688 91.9902C30.6339 91.3764 30.7452 90.7684 30.9018 90.1714L31.7056 90.2688Z" fill="#263238"/>
<path d="M32.1197 89.6963C32.1197 89.2681 31.7725 88.9209 31.3443 88.9209C30.916 88.9209 30.5688 89.2681 30.5688 89.6963C30.5688 90.1246 30.916 90.4717 31.3443 90.4717C31.5499 90.4717 31.7472 90.39 31.8926 90.2446C32.038 90.0992 32.1197 89.902 32.1197 89.6963Z" fill="#263238"/>
<path d="M41.8184 66.1583C42.6669 66.0772 43.4666 66.1583 43.6696 67.0068C43.8726 67.8553 43.7995 68.6308 43.6696 68.7363C43.2397 68.6818 42.8385 68.4912 42.5248 68.1923C42.4273 68.0096 42.8861 66.5075 42.1188 66.1949C42.0247 66.1636 41.9254 66.1512 41.8265 66.1583H41.8184Z" fill="#263238"/>
<path d="M51.1276 84.4596C51.3941 84.3022 51.7217 84.2885 52.0005 84.423C52.6419 84.7397 53.7299 85.6126 54.2212 87.9307C54.3892 88.5745 54.1766 89.2578 53.6731 89.6927C53.2265 90.0093 43.6414 95.4616 42.3706 96.2208C41.2745 96.8744 40.7021 96.0056 40.4625 95.4616C39.135 92.6847 38.0835 92.1448 38.0835 92.1448L51.1276 84.4596Z" fill="#37474F"/>
<path d="M142.086 104.441L141.274 103.982L141.85 103.722C141.85 103.722 142.301 103.844 142.313 103.864C142.309 103.969 142.298 104.074 142.281 104.177L142.086 104.441Z" fill="#E0E0E0"/>
<path d="M142.086 104.441L141.274 103.982L141.85 103.722C141.85 103.722 142.301 103.844 142.313 103.864C142.309 103.969 142.298 104.074 142.281 104.177L142.086 104.441Z" fill="#BA68C8"/>
<path opacity="0.1" d="M142.086 104.441L141.274 103.982L141.85 103.722C141.85 103.722 142.301 103.844 142.313 103.864C142.309 103.969 142.298 104.074 142.281 104.177L142.086 104.441Z" fill="white"/>
<path d="M111.872 119.662C112.602 120.031 113.465 120.031 114.195 119.662L140.234 104.641L101.26 82.1331L100.351 81.6094L74.3113 96.6306C73.6739 97 73.6739 97.605 74.3113 97.9703L111.872 119.662Z" fill="#BA68C8"/>
<path opacity="0.8" d="M111.872 119.662C112.602 120.031 113.465 120.031 114.195 119.662L140.234 104.641L101.26 82.1331L100.351 81.6094L74.3113 96.6306C73.6739 97 73.6739 97.605 74.3113 97.9703L111.872 119.662Z" fill="white"/>
<path d="M121.653 91.2593L130.734 96.4842L136.613 93.0902L143.438 97.0445V101.961C143.438 102.558 142.768 103.406 142.524 103.268C142.074 103.377 141.635 103.532 141.217 103.731C140.534 104.119 139.9 104.588 139.329 105.128L118.462 93.0821L121.653 91.2593Z" fill="#E0E0E0"/>
<path d="M121.653 91.2593L130.734 96.4842L136.613 93.0902L143.438 97.0445V101.961C143.438 102.558 142.768 103.406 142.524 103.268C142.074 103.377 141.635 103.532 141.217 103.731C140.534 104.119 139.9 104.588 139.329 105.128L118.462 93.0821L121.653 91.2593Z" fill="#5651F9"/>
<path d="M114.207 119.657L115.778 118.748L139.353 105.14C139.371 104.832 139.483 104.537 139.674 104.295C139.953 103.925 140.303 103.616 140.705 103.386C141.042 103.18 141.424 103.061 141.818 103.041C142.081 103.037 142.338 103.121 142.548 103.28C142.855 102.678 143.005 102.007 142.983 101.332H143.876C143.876 102.549 143.47 103.8 142.971 104.084L142.52 104.348C142.264 104.494 142.061 104.502 142.061 104.348V104.108C142.061 103.84 141.655 103.853 141.152 104.145C140.649 104.437 140.247 104.884 140.247 105.152V105.395C140.247 105.533 139.897 105.842 139.475 106.086L116.675 119.251L114.207 120.672C113.85 120.857 113.452 120.951 113.05 120.944V119.913C113.451 119.93 113.85 119.841 114.207 119.657Z" fill="#5651F9"/>
<path d="M73.8242 97.2798V98.3313C73.8515 98.6169 74.0274 98.8669 74.287 98.989L109.392 119.255L111.856 120.676C112.214 120.861 112.611 120.955 113.013 120.948V119.917C112.609 119.927 112.208 119.83 111.852 119.637L110.285 118.732L74.287 97.9415C74.0262 97.8187 73.8501 97.5669 73.8242 97.2798H73.8242Z" fill="#5651F9"/>
<path d="M113.034 112.988V119.012C113.302 119.021 113.569 118.958 113.805 118.83L116.647 117.181L138.403 104.62V98.3359L113.034 112.988Z" fill="white"/>
<path d="M74.957 91.7544V96.3866C74.986 96.9306 75.2725 97.4282 75.7284 97.7263L109.425 117.173L112.267 118.821C112.503 118.948 112.769 119.011 113.038 119.004V113.624L74.957 91.7544Z" fill="#F0F0F0"/>
<path d="M138.42 104.612C138.441 104.303 138.556 104.009 138.749 103.767C139.028 103.4 139.379 103.092 139.78 102.862C140.113 102.653 140.495 102.533 140.888 102.513C141.152 102.511 141.41 102.595 141.623 102.752V96.48L138.428 98.3272L138.42 104.612Z" fill="#339FFA"/>
<path d="M139.699 102.915C139.329 103.133 139.006 103.423 138.749 103.767C138.556 104.009 138.441 104.304 138.42 104.612V98.6196H139.694L139.699 102.915Z" fill="#F5F5F5"/>
<path d="M101.252 74.76L140.226 97.2675V97.7912C140.226 98.0795 140.632 98.1972 141.132 97.8968C141.631 97.5964 142.041 97.2472 142.041 96.7479L142.09 96.2526L102.373 73.3229L102.214 73.2295C102.173 73.3028 102.149 73.3849 102.145 73.469V73.7126C102.153 74.013 101.752 74.4799 101.252 74.76Z" fill="#BA68C8"/>
<path opacity="0.6" d="M101.252 74.76L140.226 97.2675V97.7912C140.226 98.0795 140.632 98.1972 141.132 97.8968C141.631 97.5964 142.041 97.2472 142.041 96.7479L142.09 96.2526L102.373 73.3229L102.214 73.2295C102.173 73.3028 102.149 73.3849 102.145 73.469V73.7126C102.153 74.013 101.752 74.4799 101.252 74.76Z" fill="white"/>
<path d="M114.207 112.317L139.67 97.6128C139.991 97.4464 140.287 97.3083 140.413 97.3733L140.246 97.2799L101.272 74.7724L100.818 74.5085C100.404 74.3909 99.9604 74.4575 99.5998 74.6912L74.3357 89.2821C73.6983 89.6516 73.6983 90.2524 74.3357 90.6218L111.905 112.317C112.629 112.68 113.483 112.68 114.207 112.317Z" fill="#BA68C8"/>
<path opacity="0.8" d="M114.207 112.317L139.67 97.6128C139.991 97.4464 140.287 97.3083 140.413 97.3733L140.246 97.2799L101.272 74.7724L100.818 74.5085C100.404 74.3909 99.9604 74.4575 99.5998 74.6912L74.3357 89.2821C73.6983 89.6516 73.6983 90.2524 74.3357 90.6218L111.905 112.317C112.629 112.68 113.483 112.68 114.207 112.317Z" fill="white"/>
<path d="M102.222 73.2422L102.381 73.3356L142.098 96.2775C142.118 96.2351 142.147 96.1977 142.183 96.1678L142.317 96.0907L142.605 95.9283L142.958 95.7213C143.099 95.6274 143.287 95.6443 143.409 95.7619C143.426 95.7731 143.441 95.7868 143.454 95.8025C143.502 95.8513 143.541 95.9075 143.571 95.9689C143.615 96.0393 143.65 96.1142 143.677 96.1922C143.708 96.2757 143.734 96.3612 143.754 96.448C143.778 96.5495 143.795 96.6469 143.815 96.7525C143.826 96.8128 143.833 96.8739 143.835 96.9351C143.835 96.9839 143.835 97.0285 143.835 97.0854C143.835 97.1422 143.835 97.3127 143.835 97.4304V96.314C143.75 95.5703 143.32 94.9101 142.674 94.5317L105.101 72.8362C104.473 72.4659 103.709 72.4103 103.034 72.686L102.559 72.9621L102.356 73.0758C102.298 73.1183 102.251 73.1758 102.222 73.2422H102.222Z" fill="#BA68C8"/>
<path opacity="0.8" d="M102.222 73.2422L102.381 73.3356L142.098 96.2775C142.118 96.2351 142.147 96.1977 142.183 96.1678L142.317 96.0907L142.605 95.9283L142.958 95.7213C143.099 95.6274 143.287 95.6443 143.409 95.7619C143.426 95.7731 143.441 95.7868 143.454 95.8025C143.502 95.8513 143.541 95.9075 143.571 95.9689C143.615 96.0393 143.65 96.1142 143.677 96.1922C143.708 96.2757 143.734 96.3612 143.754 96.448C143.778 96.5495 143.795 96.6469 143.815 96.7525C143.826 96.8128 143.833 96.8739 143.835 96.9351C143.835 96.9839 143.835 97.0285 143.835 97.0854C143.835 97.1422 143.835 97.3127 143.835 97.4304V96.314C143.75 95.5703 143.32 94.9101 142.674 94.5317L105.101 72.8362C104.473 72.4659 103.709 72.4103 103.034 72.686L102.559 72.9621L102.356 73.0758C102.298 73.1183 102.251 73.1758 102.222 73.2422H102.222Z" fill="white"/>
<path d="M114.207 112.321L115.782 111.408L133.893 100.958L139.674 97.6205C140.08 97.3769 140.421 97.2917 140.441 97.4175V97.6774C140.441 97.9697 140.847 97.9697 141.347 97.6774C141.723 97.5138 141.991 97.1721 142.061 96.768V96.4838C142.049 96.3553 142.099 96.2287 142.195 96.1428L142.329 96.0656L142.617 95.9032L142.971 95.6962C143.112 95.6023 143.299 95.6192 143.421 95.7368C143.438 95.748 143.453 95.7617 143.466 95.7774C143.496 95.8091 143.522 95.8445 143.543 95.8829C143.56 95.9005 143.574 95.9212 143.584 95.9438C143.627 96.0142 143.662 96.0891 143.689 96.1671C143.72 96.2506 143.746 96.3361 143.766 96.4229C143.791 96.5244 143.807 96.6218 143.827 96.7274C143.838 96.7877 143.845 96.8488 143.848 96.9101C143.848 96.9588 143.848 97.0034 143.848 97.0603C143.848 97.1171 143.848 97.2876 143.848 97.4053V101.319H142.954V97.4053C142.954 97.312 142.954 97.2186 142.954 97.1293L142.93 96.906C142.932 96.8994 142.932 96.8923 142.93 96.8857C142.849 97.5962 142.171 98.2295 141.582 98.5624C141.255 98.7686 140.88 98.8862 140.494 98.9034C140.196 98.9072 139.908 98.8018 139.682 98.607L139.601 98.6517L139.447 98.7451L116.647 111.911L114.207 113.348C113.856 113.528 113.465 113.619 113.07 113.612V112.581C113.465 112.589 113.855 112.5 114.207 112.321Z" fill="#5651F9"/>
<path d="M73.8242 89.9395V90.9991C73.8501 91.2862 74.0262 91.538 74.287 91.6608L109.392 111.927L111.856 113.352C112.214 113.537 112.611 113.631 113.013 113.624V112.593C112.609 112.602 112.209 112.507 111.852 112.317L110.285 111.412L74.287 90.6215C74.0203 90.4952 73.843 90.234 73.8242 89.9395Z" fill="#5651F9"/>
<path d="M99.5674 74.6914C99.928 74.4577 100.372 74.3911 100.785 74.5087L101.24 74.7726C101.739 74.4803 102.141 74.0134 102.141 73.7252V73.4816C102.145 73.3974 102.169 73.3154 102.21 73.2421C102.242 73.1761 102.291 73.12 102.352 73.0797L102.555 72.966L103.03 72.6899C103.705 72.4142 104.469 72.4698 105.097 72.8401L142.67 94.5357L142.711 94.56L116.196 109.869C115.71 110.117 115.135 110.117 114.649 109.869L76.8325 87.8208L99.5674 74.6914Z" fill="#263238"/>
<path d="M118.319 107.644L117.317 107.068C117.587 106.974 117.876 106.953 118.157 107.007C118.425 107.145 118.319 107.644 118.319 107.644Z" fill="#BA68C8"/>
<path opacity="0.7" d="M118.319 107.644L117.317 107.068C117.587 106.974 117.876 106.953 118.157 107.007C118.425 107.145 118.319 107.644 118.319 107.644Z" fill="black"/>
<path d="M119.01 107.023C118.779 106.773 118.455 106.631 118.115 106.631C117.775 106.631 117.45 106.773 117.219 107.023C116.241 107.92 116.192 108.81 115.786 108.797C115.38 108.785 115.38 101.632 115.38 101.632L119.241 105.209L119.01 107.023Z" fill="#BA68C8"/>
<path opacity="0.7" d="M119.01 107.023C118.779 106.773 118.455 106.631 118.115 106.631C117.775 106.631 117.45 106.773 117.219 107.023C116.241 107.92 116.192 108.81 115.786 108.797C115.38 108.785 115.38 101.632 115.38 101.632L119.241 105.209L119.01 107.023Z" fill="black"/>
<path d="M78.6472 81.0206L78.5823 80.984L79.1994 80.6268L105.783 65.2808L144.517 90.3459C145.155 90.7154 145.268 91.2512 144.769 91.5354L143.864 92.0591L119.018 106.427L118.839 106.297L78.6472 81.0206Z" fill="#339FFA"/>
<path d="M115.701 98.2458L117.625 97.8398V105.553C116.464 106.049 115.725 106.512 115.595 107.482L115.701 98.2458Z" fill="#455A64"/>
<path d="M118.474 105.655L143.088 91.4459C143.546 91.1486 143.834 90.6509 143.864 90.1061V82.5103L119.01 96.9834C119.01 96.9834 118.713 98.0593 117.832 98.3962C116.951 98.7332 117.625 99.0783 117.625 99.0783V105.574C118.385 105.464 118.474 105.655 118.474 105.655Z" fill="#F0F0F0"/>
<path d="M116.204 97.9824C116.46 97.8362 116.663 97.8281 116.663 97.9824V98.2219C116.663 98.4898 117.069 98.4777 117.573 98.1853C118.076 97.893 118.482 97.4465 118.482 97.1785V96.9349C118.482 96.7969 118.827 96.4884 119.249 96.2448L79.2035 73.2988L78.5824 73.6561C78.4963 73.7475 78.4422 73.8643 78.4281 73.989V74.2326C78.4281 74.5005 78.0221 74.9512 77.5228 75.2394C77.0234 75.5277 76.6134 75.5439 76.6134 75.2759V75.0324C76.6134 74.8943 76.4104 74.9065 76.1587 75.0527L116.204 97.9824Z" fill="#339FFA"/>
<path d="M78.6472 73.6763L78.5823 73.6398L79.1994 73.2825L105.783 57.9365L144.517 80.306C145.155 80.6754 145.268 81.2072 144.769 81.4955L143.864 82.0151L119.01 96.9836L78.6472 73.6763Z" fill="#339FFA"/>
<path d="M76.6052 74.7847L116.643 97.9011L115.242 98.9973L75.3547 75.9701C75.452 75.674 75.6376 75.4147 75.8866 75.2272L76.6052 74.7847Z" fill="#5651F9"/>
<path d="M75.4887 86.3021C75.464 86.2869 75.4409 86.2692 75.4196 86.2494C75.4013 86.2403 75.3858 86.2262 75.375 86.2088C75.3422 86.1768 75.3148 86.1398 75.2938 86.0992C75.2759 86.0838 75.2619 86.0643 75.2532 86.0423C75.2097 85.9727 75.1756 85.8976 75.1517 85.819C75.118 85.7346 75.0908 85.6478 75.0705 85.5592C75.0461 85.4618 75.0299 85.3643 75.0137 85.2588C74.9996 85.1988 74.9914 85.1376 74.9893 85.0761V84.9259C74.9893 84.8163 74.9893 84.6985 74.9893 84.5808V77.9674C74.982 77.273 75.1088 76.5838 75.3628 75.9375L115.25 98.9646L115.417 109.325L75.5333 86.29L75.4887 86.3021Z" fill="#BA68C8"/>
<path opacity="0.7" d="M75.4887 86.3021C75.464 86.2869 75.4409 86.2692 75.4196 86.2494C75.4013 86.2403 75.3858 86.2262 75.375 86.2088C75.3422 86.1768 75.3148 86.1398 75.2938 86.0992C75.2759 86.0838 75.2619 86.0643 75.2532 86.0423C75.2097 85.9727 75.1756 85.8976 75.1517 85.819C75.118 85.7346 75.0908 85.6478 75.0705 85.5592C75.0461 85.4618 75.0299 85.3643 75.0137 85.2588C74.9996 85.1988 74.9914 85.1376 74.9893 85.0761V84.9259C74.9893 84.8163 74.9893 84.6985 74.9893 84.5808V77.9674C74.982 77.273 75.1088 76.5838 75.3628 75.9375L115.25 98.9646L115.417 109.325L75.5333 86.29L75.4887 86.3021Z" fill="#339FFA"/>
<path opacity="0.79" d="M115.222 98.9809C115.222 98.9809 83.8073 84.2804 80.9492 82.9325C79.0614 82.0434 78.1358 83.9109 78.5823 85.8434C78.9883 87.5323 80.6407 89.2739 80.6407 89.2739L75.505 86.3062C75.4803 86.2909 75.4572 86.2732 75.436 86.2534C75.4176 86.2443 75.4021 86.2303 75.3913 86.2128C75.3586 86.1809 75.3312 86.1439 75.3102 86.1032C75.2922 86.0878 75.2783 86.0683 75.2696 86.0464C75.2261 85.9767 75.192 85.9016 75.1681 85.8231C75.1343 85.7387 75.1072 85.6518 75.0869 85.5633C75.0625 85.4658 75.0463 85.3684 75.03 85.2628C75.016 85.2029 75.0078 85.1417 75.0057 85.0801V84.9299C75.0057 84.8203 75.0057 84.7026 75.0057 84.5849V77.9674C74.9984 77.273 75.1252 76.5838 75.3792 75.9375L115.222 98.9809Z" fill="#263238"/>
<path d="M114.853 100.999H115.746C115.725 100.323 115.873 99.6535 116.176 99.0499C116.388 99.2074 116.646 99.2915 116.911 99.2894C117.304 99.2694 117.686 99.1492 118.019 98.9403C118.421 98.7119 118.772 98.4038 119.05 98.0349C119.072 98.0095 119.091 97.9824 119.107 97.9537C119.265 97.7291 119.356 97.4646 119.371 97.1905L142.946 83.5821L143.758 83.1152L144.781 82.5265C144.963 82.4437 145.083 82.267 145.094 82.0678V81.0244C145.085 81.2272 144.965 81.4084 144.781 81.4953L142.073 83.0543L119.278 96.2202C118.851 96.4638 118.506 96.7723 118.506 96.9104V97.154C118.481 97.3083 118.407 97.4505 118.295 97.5599C118.1 97.7953 117.863 97.9933 117.597 98.1446C117.094 98.4369 116.688 98.449 116.688 98.1811V97.9416C116.688 97.7995 116.489 97.8116 116.233 97.9416L115.782 98.2054C115.259 98.5302 114.853 99.7685 114.853 100.999Z" fill="#5651F9"/>
<path d="M115.746 100.999V107.612C115.746 107.705 115.746 107.799 115.746 107.888L115.766 108.111C115.764 108.118 115.764 108.125 115.766 108.132C115.847 107.421 116.525 106.788 117.114 106.455C117.442 106.248 117.818 106.131 118.206 106.114C118.504 106.11 118.792 106.216 119.018 106.41L119.095 106.366L119.253 106.272L142.049 93.1064L143.36 92.3513L143.734 92.132L144.838 91.4946C144.985 91.4023 145.077 91.2423 145.082 91.0684V92.1117C145.075 92.2757 144.991 92.4267 144.854 92.5177C144.724 92.5948 144.586 92.6679 144.448 92.7532L144.192 92.9034L143.754 93.1551C143.657 93.216 143.567 93.2688 143.482 93.3134C143.397 93.3581 143.348 93.3946 143.291 93.423L142.954 93.622L124.844 104.072L119.062 107.409C118.656 107.653 118.319 107.738 118.295 107.612C118.294 107.597 118.294 107.582 118.295 107.567V107.336C118.295 107.044 117.889 107.044 117.39 107.336C117.014 107.499 116.745 107.841 116.675 108.245V108.53C116.687 108.658 116.638 108.785 116.541 108.871L116.407 108.948L116.123 109.11L115.77 109.317C115.629 109.411 115.441 109.394 115.319 109.277C115.301 109.267 115.285 109.253 115.275 109.236C115.242 109.205 115.214 109.17 115.193 109.13C115.178 109.113 115.164 109.094 115.153 109.074C115.109 109.004 115.075 108.929 115.051 108.85C115.017 108.767 114.99 108.682 114.97 108.594C114.946 108.493 114.93 108.396 114.913 108.29C114.899 108.23 114.891 108.169 114.889 108.107C114.889 108.059 114.889 108.014 114.889 107.957C114.889 107.9 114.889 107.73 114.889 107.612V100.999H115.746Z" fill="#5651F9"/>
<path d="M75.3345 75.9497L113.245 97.8401L141.899 81.2964C142.091 81.2322 142.22 81.0523 142.22 80.8499C142.22 80.6474 142.091 80.4676 141.899 80.4033L104.386 58.7402L79.2156 73.2824L78.5945 73.6437C78.5104 73.7344 78.4578 73.8497 78.4443 73.9726V74.2162C78.4443 74.4841 78.0383 74.9347 77.5389 75.223C77.5136 75.2397 77.4863 75.2534 77.4577 75.2636L76.6214 74.7805L76.2154 75.0078L76.1586 75.0362L75.8663 75.2067C75.6177 75.3947 75.4322 75.6538 75.3345 75.9497Z" fill="#263238"/>
<path d="M139.784 81.4587L138.643 80.8497L139.682 80.6021C139.886 80.8407 139.926 81.1789 139.784 81.4587Z" fill="#E0E0E0"/>
<g style="mix-blend-mode:multiply" opacity="0.5">
<path d="M139.784 81.4587L138.643 80.8497L139.682 80.6021C139.886 80.8407 139.926 81.1789 139.784 81.4587Z" fill="#E0E0E0"/>
</g>
<path d="M109.55 96.6825C110.279 97.0521 111.14 97.0521 111.869 96.6825L137.908 81.6613L98.934 57.0224L98.0206 56.4946L71.9851 73.6432C71.3477 74.0126 71.3477 74.6135 71.9851 74.9829L109.55 96.6825Z" fill="#339FFA"/>
<path d="M119.326 66.1416L139 79.474L128.408 71.3544L134.287 67.9604L141.123 71.9187V78.9787C141.123 79.5795 140.454 80.428 140.21 80.29C139.759 80.3989 139.321 80.554 138.903 80.7528C138.22 81.1411 137.586 81.6099 137.015 82.1494L116.152 67.9685L119.326 66.1416Z" fill="#339FFA"/>
<path d="M110.708 87.8694V96.0214C110.977 96.0274 111.244 95.9646 111.483 95.8388L114.325 94.1905L136.085 81.6295V73.2095L110.708 87.8694Z" fill="white"/>
<path d="M72.6306 66.6406V73.4083C72.6608 73.9519 72.947 74.449 73.402 74.748L107.098 94.1944L109.94 95.8427C110.178 95.968 110.443 96.0309 110.711 96.0254V88.5067L72.6306 66.6406Z" fill="#F0F0F0"/>
<path d="M136.097 81.6295C136.117 81.3216 136.231 81.027 136.422 80.7851C136.7 80.4152 137.051 80.1069 137.453 79.8797C137.789 79.6708 138.171 79.5507 138.566 79.5306C138.822 79.5047 139.079 79.5647 139.297 79.7011V71.3623L136.101 73.2095L136.097 81.6295Z" fill="#455A64"/>
<path d="M137.372 79.9283C137.004 80.151 136.682 80.4417 136.422 80.7849C136.231 81.0268 136.117 81.3214 136.097 81.6293V73.5098H137.368L137.372 79.9283Z" fill="#F5F5F5"/>
<path d="M98.9299 49.6546L137.904 72.1661V72.6858C137.904 72.9781 138.31 73.0917 138.809 72.7954C139.309 72.499 139.723 72.1417 139.723 71.6424L139.771 71.1471L100.054 48.2174L99.8921 48.124C99.8512 48.1988 99.829 48.2824 99.8271 48.3676V48.6071C99.8312 48.8954 99.4293 49.3623 98.9299 49.6546Z" fill="#0084F3"/>
<path d="M111.869 87.1989L137.348 72.4984C137.673 72.3279 137.969 72.1898 138.091 72.2548L137.924 72.1655L98.9503 49.6539L98.4915 49.3941C98.0785 49.2715 97.6324 49.3384 97.2736 49.5768L71.9851 64.1636C71.3477 64.5331 71.3477 65.138 71.9851 65.5034L109.558 87.1989C110.285 87.5658 111.142 87.5658 111.869 87.1989Z" fill="#339FFA"/>
<path d="M99.8962 48.124L100.059 48.2174L139.784 71.1471C139.804 71.1048 139.833 71.0674 139.869 71.0375L140.003 70.9644L140.287 70.798L140.64 70.5909C140.782 70.4986 140.968 70.5154 141.091 70.6315C141.108 70.6428 141.123 70.6565 141.136 70.6721C141.183 70.7226 141.223 70.7785 141.257 70.8386C141.299 70.9091 141.333 70.984 141.359 71.0619C141.391 71.1469 141.418 71.2336 141.44 71.3217C141.46 71.4191 141.481 71.5165 141.497 71.6221C141.509 71.6837 141.517 71.7461 141.521 71.8089V71.955C141.521 72.0646 141.521 72.1824 141.521 72.3041V71.1877C141.439 70.4421 141.008 69.7796 140.36 69.4014L102.787 47.7059C102.159 47.3362 101.394 47.2821 100.72 47.5597L100.245 47.8358L100.046 47.9535C99.9812 47.9949 99.9291 48.0541 99.8962 48.124Z" fill="#63B8FF"/>
<path d="M111.868 96.683L113.44 95.7736L137.015 82.1611C137.036 81.8533 137.149 81.559 137.34 81.3167C137.618 80.948 137.969 80.6399 138.371 80.4113C138.706 80.2055 139.087 80.0868 139.479 80.0663C139.744 80.0608 140.003 80.1452 140.214 80.3058C140.517 79.7005 140.665 79.0295 140.644 78.353H141.537C141.537 79.571 141.131 80.8214 140.632 81.1096L140.181 81.3735C139.926 81.5197 139.727 81.5278 139.727 81.3735V81.134C139.727 80.866 139.321 80.8782 138.813 81.1665C138.306 81.4547 137.908 81.9094 137.908 82.1774V82.4169C137.908 82.5549 137.563 82.8635 137.137 83.1111L114.337 96.277L111.868 97.702C111.511 97.8868 111.114 97.9803 110.711 97.974V96.9428C111.113 96.9565 111.511 96.8671 111.868 96.683Z" fill="#5651F9"/>
<path d="M111.86 87.2032L113.432 86.2938L131.542 75.8439L137.348 72.4986C137.754 72.2591 138.095 72.1739 138.119 72.2997V72.5636C138.119 72.8519 138.525 72.8519 139.025 72.5636C139.402 72.3993 139.67 72.0558 139.739 71.6502V71.366C139.727 71.2375 139.777 71.1109 139.873 71.0249L140.007 70.9519L140.291 70.7854L140.644 70.5784C140.786 70.4861 140.972 70.5029 141.095 70.619C141.112 70.6303 141.127 70.644 141.14 70.6596C141.171 70.6926 141.198 70.7294 141.221 70.7692C141.236 70.7867 141.25 70.8057 141.261 70.826C141.303 70.8965 141.337 70.9714 141.363 71.0493C141.395 71.1343 141.422 71.2211 141.444 71.3091C141.464 71.4066 141.485 71.504 141.501 71.6096C141.513 71.6712 141.521 71.7336 141.525 71.7963V71.9425C141.525 72.0521 141.525 72.1698 141.525 72.2916V78.3326H140.632V72.3241C140.632 72.2307 140.632 72.1333 140.632 72.044L140.612 71.8207C140.531 72.5311 139.853 73.1645 139.26 73.4974C138.934 73.7048 138.558 73.8225 138.172 73.8384C137.874 73.8422 137.585 73.7367 137.36 73.542L137.283 73.5867L137.125 73.68L114.325 86.8459L111.856 88.2709C111.504 88.4513 111.112 88.5419 110.716 88.5348V87.5036C111.116 87.5008 111.51 87.3975 111.86 87.2032Z" fill="#5651F9"/>
<path d="M71.502 64.8218V65.8692C71.527 66.1554 71.7015 66.4071 71.9607 66.5309L107.07 86.7974L109.534 88.2224C109.89 88.4066 110.286 88.5 110.687 88.4944V87.4632C110.284 87.4721 109.886 87.377 109.53 87.1872L107.963 86.2818L71.9851 65.5038C71.7067 65.3877 71.5191 65.1229 71.502 64.8218L71.502 64.8218Z" fill="#5651F9"/>
<path d="M71.502 74.2974V75.3448C71.527 75.631 71.7015 75.8827 71.9607 76.0065L107.086 96.2771L109.55 97.7021C109.906 97.8862 110.302 97.9797 110.703 97.9741V96.9429C110.3 96.9518 109.902 96.8567 109.546 96.6668L107.979 95.7615L71.9851 74.9794C71.7067 74.8633 71.5191 74.5985 71.502 74.2974L71.502 74.2974Z" fill="#5651F9"/>
<path d="M87.7169 37.4629L83.99 44.1047L89.422 46.9953L93.3762 41.1086L87.7169 37.4629Z" fill="#FFC0C0"/>
<path d="M100.939 22.5027C98.869 22.1495 95.7348 22.0561 93.6968 25.5516C91.6588 29.0471 87.2661 37.6741 87.2661 37.6741C87.2661 37.6741 89.8319 40.9951 93.5466 41.6L99.616 31.9701L100.939 22.5027Z" fill="#5651F9"/>
<rect x="91.4111" y="103.845" width="4.63628" height="7.93689" fill="#FFC0C0"/>
<path d="M82.6257 101.912L77.9895 102.071L77.7581 93.671L82.3903 93.5127L82.6257 101.912Z" fill="#FFC0C0"/>
<path d="M91.4113 109.492V108.83C90.9688 109.021 89.9376 112.955 88.0985 114.631C86.637 115.967 84.6436 117.506 84.1361 118.992C83.6084 120.538 86.913 121.395 88.2771 121.151C89.8645 120.871 92.6171 119.755 93.3072 118.716C93.9974 117.676 94.3222 116.154 94.8824 115.395C95.4427 114.635 96.7377 113.771 97.0422 112.906C97.2087 112.423 97.0097 111.367 96.7783 110.47C96.5632 109.658 96.3277 108.749 96.0476 108.826V109.329C95.7106 109.703 94.7809 110.072 93.7294 110.113C93.0514 110.145 91.4072 110.011 91.4113 109.492Z" fill="#263238"/>
<path d="M77.941 100.641C77.7015 100.641 77.5066 100.99 76.9747 101.563C76.1814 102.364 75.2592 103.027 74.2466 103.523C72.509 104.396 69.1434 105.732 67.6088 106.426C66.6548 106.857 66.6994 108.01 67.6859 108.667C68.6725 109.325 71.0515 109.796 73.9137 109.154C75.4686 108.805 77.4985 107.368 78.7854 107.445C80.0724 107.522 82.4717 107.506 83.4176 106.852C84.3636 106.199 83.986 104.823 83.7181 103.605C83.4258 102.297 83.0076 100.296 82.5732 100.385V100.791C82.017 101.636 79.1792 101.981 77.9532 101.36L77.941 100.641Z" fill="#263238"/>
<path d="M114.723 55.5776C115.738 62.7431 114.369 64.1032 107.561 70.9804C103.907 74.6708 98.0004 80.0825 98.0004 80.0825C98.0004 80.0825 98.0856 82.3722 98.1303 87.5038C98.175 92.0223 96.2872 106.727 96.2872 106.727C96.2872 106.727 93.2098 108.022 91.0987 106.678C91.0987 106.678 90.1447 95.7371 89.6291 90.0331C88.9308 82.3194 88.5654 78.4302 88.9592 76.7697C89.3084 75.3041 96.2384 66.5512 97.838 64.0991L83.1091 72.6571C83.3947 74.8256 83.5384 77.0103 83.5394 79.1975C83.377 85.3318 82.6219 97.5843 82.6219 97.5843C82.6219 97.5843 79.2523 99.0904 77.5796 97.7913C77.5796 97.7913 73.3372 70.9967 73.3372 68.7963C73.3372 65.4551 87.8469 55.4802 90.5953 53.158C92.1624 51.8345 93.9081 50.4014 93.9081 50.4014L114.723 55.5776Z" fill="#455A64"/>
<path d="M97.8378 64.103C96.2885 62.8487 95.1225 61.1847 94.4722 59.3003C94.5534 60.5298 94.7285 61.7513 94.996 62.9541C95.4019 64.5455 83.1089 72.657 83.1089 72.657L97.8378 64.103Z" fill="#37474F"/>
<circle cx="99.6167" cy="8.18613" r="6.58092" transform="rotate(-76.81 99.6167 8.18613)" fill="#263238"/>
<path d="M113.444 26.4892C113.444 26.4892 115.068 27.8208 115.068 32.0267V41.1085L114.836 56.3814C111.588 59.9175 96.9732 58.5777 93.356 50.8641C93.356 50.8641 93.3844 34.7427 93.3844 31.1295C93.3844 27.5163 95.4143 22.8272 100.936 22.5024L108.089 24.167L113.444 26.4892Z" fill="#339FFA"/>
<path d="M110.992 12.8647C110.992 12.8647 109.924 17.8745 109.498 18.6987C109.213 19.2067 108.743 19.585 108.186 19.7542L108.259 16.2303L110.992 12.8647Z" fill="#263238"/>
<path d="M109.652 5.68682C110.403 5.60241 111.151 5.86729 111.682 6.40541C112.559 7.30262 112.068 10.112 110.975 12.8645L108.966 13.0959L109.652 5.68682Z" fill="#263238"/>
<path d="M108.381 13.0959C108.787 13.3355 109.36 12.5641 109.855 12.0444C110.35 11.5248 111.974 10.8265 112.782 12.5194C113.59 14.2124 112.067 16.5508 110.793 16.9527C108.592 17.6429 108.259 16.2301 108.259 16.2301L108.093 24.167C106.197 26.2862 99.7135 25.7909 100.936 23.9559V21.52C100.936 21.52 98.9422 21.8245 97.9719 21.6743C96.3479 21.4226 95.333 20.1478 94.8418 18.394C94.0542 15.5805 93.7537 13.3111 94.4358 7.77761C95.1706 1.71228 102.222 1.65138 106.031 4.04666C109.839 6.44194 108.381 13.0959 108.381 13.0959Z" fill="#FFC0C0"/>
<path fill-rule="evenodd" clip-rule="evenodd" d="M102.434 14.4848H102.775H102.779C104.019 14.4848 105.024 13.4796 105.024 12.2397C105.024 10.9998 104.019 9.99463 102.779 9.99463H102.434C101.194 9.99463 100.188 10.9998 100.188 12.2397C100.188 13.4796 101.194 14.4848 102.434 14.4848ZM100.566 12.2398C100.566 11.2084 101.402 10.3723 102.434 10.3723H102.779C103.81 10.3723 104.646 11.2084 104.646 12.2398C104.646 13.2712 103.81 14.1073 102.779 14.1073H102.434C101.402 14.1073 100.566 13.2712 100.566 12.2398Z" fill="#263238"/>
<path fill-rule="evenodd" clip-rule="evenodd" d="M95.593 14.4848H95.938C97.178 14.4848 98.1831 13.4796 98.1831 12.2397C98.1831 10.9998 97.178 9.99463 95.938 9.99463H95.593C94.3531 9.99463 93.3479 10.9998 93.3479 12.2397C93.3479 13.4796 94.3531 14.4848 95.593 14.4848ZM93.7255 12.2398C93.7255 11.2084 94.5616 10.3723 95.593 10.3723H95.9381C96.9695 10.3723 97.8056 11.2084 97.8056 12.2398C97.8056 13.2712 96.9695 14.1073 95.9381 14.1073H95.593C94.5616 14.1073 93.7255 13.2712 93.7255 12.2398Z" fill="#263238"/>
<path d="M100.213 11.7971C99.9351 11.4199 99.4957 11.1957 99.0273 11.1922C98.637 11.1529 98.2516 11.304 97.9921 11.5981L97.6917 11.3708C98.0254 10.9761 98.5339 10.7736 99.0476 10.8308C99.6415 10.8367 100.196 11.1284 100.538 11.6144L100.213 11.7971Z" fill="#263238"/>
<rect x="104.813" y="11.7808" width="4.77431" height="0.377561" fill="#263238"/>
<path d="M108.381 13.7742C108.584 13.7742 109.352 12.4995 109.855 12.0448C110.549 11.4114 109.652 5.68712 109.652 5.68712C109.652 5.68712 110.322 4.26213 108.982 2.79249C108.032 1.74506 106.441 1.62733 103.725 1.20105C102.3 0.977763 100.14 0.575844 98.7149 0.311957C97.0179 -0.00470651 95.6091 -0.337609 94.4115 0.717936C93.4481 1.55305 93.1147 2.90425 93.5792 4.09162C93.9231 4.81428 94.5346 5.37483 95.2843 5.65464C95.2843 5.65464 96.0232 6.31233 98.6012 6.62493C101.179 6.93754 105.194 6.5681 105.742 6.49096C106.489 6.38946 106.648 7.11211 107.054 9.09329C107.407 10.8187 107.711 13.762 108.381 13.7742Z" fill="#263238"/>
<path d="M109.648 6.14987L112.084 4.83856C111.926 4.5077 111.64 4.25557 111.292 4.14059C110.944 4.02562 110.564 4.05777 110.241 4.22959C109.565 4.61075 109.304 5.45393 109.648 6.14987Z" fill="#263238"/>
<path d="M100.94 21.5406C100.94 21.5406 104.553 20.8139 105.811 20.144C106.554 19.7562 107.162 19.1535 107.557 18.4146C107.366 19.1506 107.029 19.8409 106.566 20.4444C105.641 21.6258 100.936 22.4946 100.936 22.4946L100.94 21.5406Z" fill="#F9A9A9"/>
<path d="M101.808 12.1946C101.824 12.5924 102.157 12.9036 102.555 12.8926C102.953 12.8816 103.268 12.5524 103.261 12.1543C103.255 11.7563 102.929 11.4375 102.531 11.4395C102.335 11.4437 102.149 11.5257 102.013 11.6673C101.878 11.8089 101.804 11.9986 101.808 12.1946Z" fill="#263238"/>
<path d="M102.969 9.19894L104.52 10.0515C104.737 9.61352 104.58 9.08242 104.159 8.83356C103.954 8.72002 103.711 8.69481 103.487 8.76371C103.262 8.8326 103.076 8.9897 102.969 9.19894H102.969Z" fill="#263238"/>
<path d="M101.269 17.1924L99.6162 17.8135C99.6881 18.0377 99.8482 18.2229 100.06 18.3263C100.271 18.4297 100.516 18.4425 100.737 18.3616C101.2 18.1783 101.435 17.6617 101.269 17.1924Z" fill="#F28F8F"/>
<path d="M95.1666 9.83188L96.5794 8.74791C96.4465 8.5567 96.2412 8.42815 96.0112 8.39211C95.7812 8.35608 95.5464 8.41569 95.3614 8.5571C94.9664 8.86174 94.8805 9.42312 95.1666 9.83188Z" fill="#263238"/>
<path d="M95.7878 11.9876C95.8034 12.3854 96.1361 12.6966 96.534 12.6855C96.932 12.6745 97.247 12.3454 97.2405 11.9473C97.2341 11.5493 96.9085 11.2305 96.5104 11.2324C96.3144 11.2367 96.1282 11.3187 95.9927 11.4603C95.8571 11.6019 95.7834 11.7916 95.7878 11.9876Z" fill="#263238"/>
<path d="M99.3644 11.4072L99.2832 15.7959L96.689 15.2234L99.3644 11.4072Z" fill="#F9A9A9"/>
<path d="M94.931 47.8929V48.2988C94.9306 48.7213 94.7046 49.1114 94.3383 49.3219L83.0642 55.8176C82.6987 56.0286 82.2484 56.0286 81.8828 55.8176L61.1982 43.8777C60.8319 43.6672 60.6059 43.2771 60.6055 42.8547V42.5664L82.4715 55.1883L94.931 47.8929Z" fill="#BA68C8"/>
<path opacity="0.6" d="M94.931 47.8929V48.2988C94.9306 48.7213 94.7046 49.1114 94.3383 49.3219L83.0642 55.8176C82.6987 56.0286 82.2484 56.0286 81.8828 55.8176L61.1982 43.8777C60.8319 43.6672 60.6059 43.2771 60.6055 42.8547V42.5664L82.4715 55.1883L94.931 47.8929Z" fill="black"/>
<path d="M60.6177 42.5699L72.8823 35.4897C73.1009 35.3635 73.3701 35.3635 73.5887 35.4897L94.862 47.7746C94.9099 47.8031 94.9393 47.8548 94.9393 47.9106C94.9393 47.9664 94.9099 48.018 94.862 48.0466L82.4837 55.1918L60.6177 42.5699Z" fill="#339FFA"/>
<path d="M82.5854 54.1525L89.1988 50.3363L69.8579 39.1719L63.208 42.9678L82.5854 54.1525Z" fill="#263238"/>
<path d="M85.8371 43.5401L85.7153 43.6092L82.4715 45.4807L76.7066 42.1517L76.5889 42.0827L79.9504 40.1421L85.8371 43.5401Z" fill="#263238"/>
<path d="M85.7155 43.6098L82.4717 45.4814L76.7068 42.1523L79.9506 40.2808L85.7155 43.6098Z" fill="#263238"/>
<path opacity="0.7" d="M82.4715 55.1922V55.9798C82.2648 55.9796 82.0618 55.925 81.8828 55.8215L61.1982 43.8816C60.8319 43.6711 60.6059 43.281 60.6055 42.8586V42.5703L82.4715 55.1922Z" fill="black"/>
<path d="M82.1346 55.3663C81.736 55.525 81.2864 55.4905 80.9167 55.2729L60.3254 43.3858C59.9633 43.1781 59.713 42.8191 59.6434 42.4074L57.3902 28.9614C57.3774 28.8863 57.3706 28.8103 57.3699 28.7341C57.3675 28.3605 57.5135 28.0013 57.7759 27.7354L79.175 40.0934C79.45 40.2445 79.6423 40.5114 79.6988 40.8201L82.1346 55.3663Z" fill="#339FFA"/>
<path d="M82.4716 55.1916L82.3336 55.2728C82.2711 55.3088 82.206 55.34 82.1387 55.3661L79.7029 40.8199C79.651 40.515 79.4667 40.2489 79.1995 40.0932L57.8003 27.7352C57.8853 27.6514 57.9808 27.5791 58.0845 27.52L79.5283 39.8983C79.7955 40.054 79.9799 40.3202 80.0317 40.625L82.4716 55.1916Z" fill="#E0E0E0"/>
<path d="M70.5399 42.9557C70.3897 42.0585 69.46 40.8608 68.4654 40.2884C67.4707 39.716 66.7846 39.9758 66.9389 40.8771C67.0932 41.7784 68.0188 42.9719 69.0135 43.5484C70.0081 44.1249 70.6942 43.857 70.5399 42.9557Z" fill="#64DC9B"/>
<path d="M74.758 51.7088C74.7151 51.1262 74.6019 50.551 74.421 49.9955C74.1044 49.0009 73.1625 45.1684 71.0108 44.5919C70.7549 44.515 70.4834 44.5066 70.2232 44.5676C69.6264 44.73 69.3544 45.3511 69.2367 45.9073C69.1271 46.7292 69.1271 47.5619 69.2367 48.3838C68.9059 48.0055 68.5183 47.6809 68.0878 47.4216C67.706 47.1342 67.2458 46.9699 66.7683 46.9507C66.6335 46.9441 66.5041 47.0049 66.4233 47.1131C66.3461 47.2552 66.4233 47.4338 66.545 47.5597C66.7602 47.8195 67.0241 48.0387 67.2393 48.2985C67.4079 48.5251 67.5638 48.761 67.7061 49.0049C67.9782 49.4434 68.2826 49.8575 68.5871 50.2757C69.1721 51.1445 69.906 51.9032 70.755 52.5167C71.7316 53.1776 72.8395 53.6194 74.0029 53.8117C75.574 54.0066 77.1005 53.9822 78.0911 53.6372L74.758 51.7088Z" fill="#FFC0C0"/>
<path d="M113.013 26.6071C111.564 25.8601 109.445 28.8197 110.119 31.9132C110.793 35.0068 114.114 45.883 114.114 45.883C114.114 45.883 99.1126 47.2227 97.8378 47.381C96.9487 47.4866 95.9541 47.036 95.1299 46.764C94.0094 46.3905 92.8768 46.1306 91.7725 45.7247C91.5803 45.6364 91.3709 45.592 91.1595 45.5947C90.9412 45.6042 90.7564 45.759 90.7088 45.9723C90.7035 46.0993 90.736 46.2251 90.8022 46.3336C91.1564 47.0561 91.6887 47.6764 92.349 48.1362C92.6689 48.3252 92.973 48.5397 93.2584 48.7776C93.433 48.9522 93.8186 49.4353 93.6644 49.6992L87.7046 53.1297C87.7046 53.1297 89.0768 54.3233 94.046 52.9308C95.8373 52.4622 97.5853 51.8415 99.2709 51.0755C99.2709 51.0755 116.947 51.8103 120.142 50.8441C121.271 50.499 121.677 49.6992 120.914 46.0616C120.041 41.8476 117.536 34.1624 116.968 32.1325C115.721 27.7357 115.425 27.8372 113.013 26.6071Z" fill="#FFC0C0"/>
<path d="M112.267 25.9775C112.267 25.9775 114.662 26.6515 115.693 28.0074C116.724 29.3634 120.703 42.4806 120.703 42.4806C118.598 44.2363 115.828 44.9785 113.127 44.5105C113.127 44.5105 109.928 35.4369 109.587 33.0132C108.982 29.2578 110.817 26.3023 112.267 25.9775Z" fill="#5651F9"/>
<path d="M99.3402 34.7797C99.1453 33.7648 99.7786 33.2167 100.757 33.5618C101.807 33.9932 102.59 34.897 102.868 35.9977C103.063 37.0248 99.531 35.7866 99.3402 34.7797Z" fill="#BA68C8"/>
<path d="M106.035 37.9416L103.156 36.1106C103.302 36.8901 102.251 36.7805 101.305 36.4516C100.359 36.1228 99.2019 35.457 99.0517 34.6775L96.5428 34.645C96.3113 34.645 96.3073 34.9454 96.5428 35.1931C97.1639 35.8873 98.6092 37.1174 101.646 38.177C104.683 39.2366 105.848 38.9078 106.286 38.583C106.428 38.4612 106.298 38.108 106.035 37.9416Z" fill="#BA68C8"/>
</svg>
