<svg width="22" height="23" viewBox="0 0 22 23" fill="none" xmlns="http://www.w3.org/2000/svg">
<path d="M17.8322 8.50394C17.9586 8.06061 17.986 7.59494 17.9125 7.13986C17.839 6.68478 17.6664 6.25141 17.4069 5.87041C17.1474 5.4894 16.8073 5.17006 16.4108 4.93498C16.0143 4.6999 15.5709 4.55482 15.1122 4.50999C14.9281 3.98179 14.5843 3.52388 14.1285 3.19964C13.6727 2.8754 13.1274 2.70086 12.568 2.7002C11.9033 2.70245 11.2633 2.95206 10.7726 3.40042C10.2819 2.95206 9.64184 2.70245 8.97715 2.7002C7.80922 2.7002 6.81365 3.4462 6.4411 4.5091C5.9815 4.5528 5.53714 4.6971 5.13956 4.93177C4.74197 5.16644 4.4009 5.48572 4.14053 5.86697C3.88017 6.24823 3.70689 6.6821 3.63299 7.13783C3.5591 7.59355 3.58639 8.05995 3.71294 8.50394C3.13663 8.81056 2.65408 9.26746 2.31648 9.82618C1.97887 10.3849 1.79882 11.0246 1.79541 11.6774C1.79541 12.6424 2.17963 13.55 2.84754 14.2197C2.74534 14.5598 2.69332 14.9131 2.69313 15.2682C2.69313 17.0251 3.96071 18.491 5.66098 18.7999C5.91059 19.3515 6.31365 19.8197 6.82207 20.1486C7.33049 20.4775 7.92279 20.6531 8.52829 20.6545C9.40716 20.6545 10.2016 20.2892 10.7726 19.7039C11.064 20.0045 11.4128 20.2435 11.7983 20.4068C12.1838 20.5701 12.5982 20.6544 13.0169 20.6545C13.6213 20.6534 14.2127 20.4785 14.7204 20.1506C15.2282 19.8227 15.6309 19.3557 15.8806 18.8053C16.3815 18.7169 16.8579 18.5234 17.2785 18.2374C17.6991 17.9514 18.0542 17.5794 18.3204 17.1461C18.5867 16.7127 18.758 16.2278 18.823 15.7233C18.888 15.2189 18.8453 14.7064 18.6976 14.2197C19.0314 13.8858 19.2961 13.4894 19.4767 13.0532C19.6572 12.617 19.75 12.1495 19.7498 11.6774C19.7464 11.0246 19.5663 10.3849 19.2287 9.82618C18.8911 9.26746 18.4085 8.81056 17.8322 8.50394ZM8.52829 18.8591C7.89002 18.8591 7.33433 18.4067 7.20865 17.7836L7.01833 17.0637H6.284C5.29382 17.0637 4.48856 16.2584 4.48856 15.2682C4.48856 14.9522 4.56487 14.656 4.71569 14.3876L5.12505 13.655L4.42123 13.1972C4.16699 13.0333 3.95781 12.8084 3.81277 12.5429C3.66772 12.2774 3.59143 11.9799 3.59085 11.6774C3.59085 10.8003 4.2399 10.0399 5.10081 9.90707L6.62064 9.67367L5.66996 8.46534C5.50066 8.24708 5.40247 7.98209 5.38869 7.7062C5.3749 7.43032 5.44618 7.15686 5.59288 6.92281C5.73958 6.68876 5.95462 6.50541 6.20892 6.39756C6.46322 6.28971 6.74451 6.26256 7.01474 6.31979L8.07943 6.47689V5.39335C8.07943 5.15526 8.17401 4.92692 8.34237 4.75857C8.51072 4.59021 8.73906 4.49563 8.97715 4.49563C9.21524 4.49563 9.44358 4.59021 9.61193 4.75857C9.78029 4.92692 9.87487 5.15526 9.87487 5.39335V17.5125C9.87487 18.2549 9.27071 18.8591 8.52829 18.8591ZM17.1239 13.1963L16.4201 13.6541L16.8295 14.3867C16.9803 14.656 17.0566 14.9522 17.0566 15.2682C17.0566 16.2584 16.2514 17.0637 15.2163 17.0637H14.482L14.3365 17.7836C14.2738 18.0873 14.1083 18.3601 13.8679 18.556C13.6275 18.7519 13.327 18.8589 13.0169 18.8591C12.2745 18.8591 11.6703 18.2549 11.6703 17.5125V5.39335C11.6703 4.89781 12.0725 4.49563 12.568 4.49563C13.0636 4.49563 13.4657 4.89781 13.4657 5.43823V6.52178L14.5304 6.31979C14.8007 6.26256 15.082 6.28971 15.3363 6.39756C15.5906 6.50541 15.8056 6.68876 15.9523 6.92281C16.099 7.15686 16.1703 7.43032 16.1565 7.7062C16.1427 7.98209 16.0445 8.24708 15.8752 8.46534L14.9245 9.67456L16.4444 9.90797C16.8649 9.97607 17.2476 10.1914 17.5242 10.5154C17.8008 10.8395 17.9532 11.2513 17.9543 11.6774C17.9543 12.2905 17.6437 12.8579 17.1239 13.1963Z" fill="white"/>
</svg>
