<svg width="202" height="130" viewBox="0 0 202 116" fill="none" xmlns="http://www.w3.org/2000/svg">
<g opacity="0.658529">
<ellipse cx="96.465" cy="7.86624" rx="96.465" ry="7.86624" transform="matrix(-1 0 0 1 192.93 100.191)" fill="#DCDBED"/>
</g>
<path fill-rule="evenodd" clip-rule="evenodd" d="M173.202 49.5696C173.487 51.0269 173.034 52.3517 172.393 53.646C172.33 53.7729 172.265 53.9004 172.2 54.0285C171.603 55.2063 170.98 56.4345 171.086 57.7581C171.091 57.8294 171.177 57.8141 171.177 57.7581C171.13 56.3817 171.733 55.1898 172.335 53.9995C172.975 52.7352 173.613 51.4727 173.472 49.9925C173.312 48.7274 172.799 47.5332 171.991 46.5479C171.456 45.9132 170.88 45.314 170.266 44.7543L170.022 44.4536C169.484 43.8365 169.004 43.1713 168.588 42.4664C168.153 41.6415 167.867 40.7462 167.743 39.8218C167.727 39.7144 167.71 39.6069 167.694 39.4994C167.445 37.8453 167.194 36.1791 165.947 34.9352C164.792 33.8732 163.343 33.1874 161.791 32.9683C158.356 32.3568 154.368 33.1925 152.307 36.2498C151.945 36.7865 151.667 37.376 151.483 37.9976C150.32 39.026 149.505 40.3922 149.153 41.9059C148.918 43.1746 149.38 44.2624 149.756 45.1489C149.992 45.7044 150.194 46.1808 150.171 46.5734C150.134 47.2333 149.869 47.8307 149.607 48.4196C149.503 48.6536 149.399 48.8864 149.311 49.1211C148.969 49.8246 148.678 50.5517 148.441 51.2969C148.168 52.3423 148.21 53.4452 148.563 54.4664C148.829 55.4047 149.319 56.2636 149.993 56.9683C150.669 57.5972 151.508 58.0228 152.414 58.1963C152.628 58.2473 152.847 58.2931 153.065 58.3339C153.361 58.4722 153.664 58.5948 153.967 58.7175C154.457 58.9158 154.947 59.1141 155.406 59.3785C156.213 59.8547 156.82 60.6078 157.115 61.4982C157.293 62.0053 157.414 62.5216 157.534 63.0361C157.613 63.3746 157.692 63.7123 157.787 64.046C158.004 64.8265 158.368 65.5582 158.86 66.2014C159.871 67.4556 161.268 68.339 162.834 68.7135C164.655 69.1285 166.552 69.0777 168.348 68.5657C169.956 68.1428 171.452 67.3326 172.271 65.8294C172.991 64.5158 173.117 62.9566 172.617 61.5441C172.242 60.7317 171.791 59.9571 171.269 59.2307C170.784 58.4891 170.544 57.6142 170.582 56.7288C170.661 55.5235 171.156 54.4004 171.648 53.2841C172.356 51.6773 173.057 50.0844 172.505 48.2804C172.244 47.5019 171.854 46.7731 171.35 46.125C172.276 47.0779 172.917 48.2709 173.202 49.5696ZM152.537 58.0701C152.554 58.08 152.57 58.0898 152.587 58.0996L152.557 58.0741C152.55 58.0728 152.543 58.0714 152.537 58.0701ZM149.007 50.1325C148.74 50.7379 148.555 51.3762 148.456 52.0308C148.362 53.4443 148.73 54.8501 149.504 56.0359C150.208 57.0879 151.298 57.8188 152.537 58.0701C151.457 57.4325 150.561 56.5244 149.937 55.4346C149.22 54.1972 148.853 52.7883 148.873 51.3582C148.883 50.9465 148.927 50.5364 149.007 50.1325ZM149.007 50.1325C149.013 50.1181 149.019 50.1037 149.026 50.0894C149.029 50.0725 149.029 50.0553 149.026 50.0384C149.019 50.0697 149.013 50.1011 149.007 50.1325Z" fill="#263238"/>
<path d="M129.286 36.7081L132.573 51.2558C132.715 51.6839 132.497 52.0253 132.064 52.0151L124.616 51.8316C124.152 51.786 123.756 51.4765 123.598 51.0367L120.312 36.489C120.164 36.0609 120.388 35.7195 120.821 35.7297L128.269 35.9132C128.733 35.9588 129.129 36.2683 129.286 36.7081V36.7081Z" fill="#A6A6A6"/>
<path d="M128.381 36.6776L131.667 51.2253C131.81 51.6534 131.591 51.9948 131.158 51.9846L123.71 51.8011C123.248 51.7552 122.852 51.4483 122.693 51.0113L119.406 36.4585C119.259 36.0304 119.482 35.6941 119.915 35.7043L127.363 35.8827C127.826 35.9307 128.221 36.2393 128.381 36.6776Z" fill="#C7C7C7"/>
<path d="M126.32 37.2895C126.299 37.5297 126.415 37.7615 126.619 37.8883C126.824 38.0151 127.083 38.0151 127.288 37.8883C127.493 37.7615 127.609 37.5297 127.587 37.2895C127.558 36.9611 127.283 36.7095 126.954 36.7095C126.624 36.7095 126.35 36.9611 126.32 37.2895V37.2895Z" fill="#263238"/>
<path d="M152.755 59.5569C148.4 68.4843 138.749 80.0206 134.832 80.0104C132.97 80.0104 129.637 80.4028 127.2 78.2219C121.935 73.4575 117.615 64.4384 116.781 59.297C116.486 57.4728 125.399 53.6563 126.686 55.1645C129.693 58.6856 133.148 65.5594 133.692 65.5289C135.696 65.4066 143.638 58.9862 149.179 54.4664C155.93 48.9785 154.49 55.9951 152.755 59.5569Z" fill="#AD6359"/>
<path d="M116.725 49.8753C117.743 46.1912 118.541 45.3963 117.743 41.8396C117.234 39.5059 118.47 38.1657 120.088 40.0562C122.734 43.1492 122.449 48.1734 121.848 49.8855L116.725 49.8753Z" fill="#AD6359"/>
<path d="M117.208 60.8921C117.208 60.8921 115.641 55.7099 116.308 51.6794C116.776 48.887 118.46 42.9354 126.32 39.8985C128.187 39.18 131.352 39.4755 128.732 41.7634C126.875 43.3838 125.206 43.8475 124.295 44.9889C124.295 44.9889 128.274 45.8501 128.925 47.7456C129.491 49.4103 129.938 51.1131 130.263 52.8411C129.96 52.972 129.649 53.0843 129.332 53.1774C129.332 53.1774 129.769 55.0118 128.411 57.5239L117.208 60.8921Z" fill="#AD6359"/>
<path d="M117.178 49.0855C118.323 48.1479 120.775 46.1912 123.339 45.2944C126.188 44.2753 131.942 43.1441 132.654 45.2536C133.163 46.7823 131.021 47.4396 131.021 47.4396C131.021 47.4396 133.499 47.4396 133.667 48.9683C133.819 50.339 132.14 50.7262 132.14 50.7262C132.14 50.7262 133.667 51.0014 133.534 52.3466C133.407 53.9721 130.283 53.1313 128.737 54.66C128.365 55.0014 117.178 49.0855 117.178 49.0855Z" fill="#AD6359"/>
<path d="M123.893 48.484C126.089 47.409 128.559 47.0286 130.975 47.3936C131.036 47.3936 131.057 47.4598 131.001 47.4598C128.593 47.5181 126.201 47.8706 123.878 48.5095C123.878 48.5095 123.878 48.4891 123.893 48.484Z" fill="#263238"/>
<path d="M124.982 51.3373C127.254 50.4787 129.714 50.2498 132.105 50.6749C132.166 50.6749 132.186 50.7462 132.13 50.7411C129.73 50.6786 127.33 50.8888 124.977 51.3678L124.982 51.3373Z" fill="#263238"/>
<path d="M148.746 67.6436L141.339 60.0003C141.339 60.0003 146.797 54.9047 150.817 52.9378C154.836 50.971 155.518 53.5646 153.869 57.6257C152.221 61.6869 148.746 67.6436 148.746 67.6436Z" fill="#5651F9"/>
<path d="M143.531 58.7822C145.807 60.7733 147.947 62.9148 149.937 65.1924C149.937 65.1924 149.896 65.2587 149.886 65.2434C148.034 63.6026 144.6 60.0561 143.455 58.8587C143.435 58.8383 143.506 58.7618 143.531 58.7822Z" fill="#263238"/>
<path d="M142.809 61.5285L148.746 67.6431C148.746 67.6431 152.231 61.6559 153.874 57.5998C154.765 55.3935 154.973 53.61 154.337 52.7642L142.809 61.5285Z" fill="#263238"/>
<path d="M40.7221 109.758C41.8871 110.206 75.7448 110.823 77.0727 110.064C77.2151 109.977 77.1744 108.484 77.673 104.611C77.6984 104.428 78.4718 103.709 79.6775 102.695C84.2054 98.8941 94.8435 90.8789 94.8435 90.8789L77.9477 76.1782L61.576 92.2954L57.3126 96.4891C57.3126 96.4891 43.4796 103.969 42.111 104.958C40.7425 105.946 39.557 109.309 40.7221 109.758Z" fill="#AD6359"/>
<path d="M40.7219 109.759C41.887 110.207 75.7447 110.824 77.0725 110.064C77.215 109.978 77.1743 108.485 77.6729 104.612C72.3564 105.458 48.6178 105.906 46.1809 104.938C44.0034 104.062 48.1701 101.514 49.0452 101.004C45.8095 102.788 42.7163 104.515 42.1108 104.959C40.7626 105.947 39.5569 109.31 40.7219 109.759Z" fill="#5651F9"/>
<path d="M65.1831 86.6551L83.1523 102.619C83.1523 102.619 101.885 83.5468 105.746 83.394C107.685 83.3175 138.688 100.658 153.345 102.176C163.739 103.251 170.099 90.0029 170.099 90.0029L147.093 81.101C131.047 73.1774 112.96 58.9456 102.027 60.2755C90.1732 61.7175 65.1831 86.6551 65.1831 86.6551Z" fill="#37474F"/>
<path d="M70.9268 84.3767C73.8674 86.9907 73.0585 86.2009 75.9686 88.8506C77.3931 90.1449 84.5716 96.6417 85.7011 98.0735C85.7265 98.1041 85.7011 98.15 85.6451 98.1296C84.1188 97.1105 77.098 90.4608 75.6989 89.141C72.8346 86.4404 73.6639 87.1843 70.8505 84.4582C70.834 84.4451 70.8264 84.4238 70.8306 84.4031C70.8349 84.3825 70.8503 84.366 70.8706 84.3604C70.8909 84.3548 70.9126 84.3611 70.9268 84.3767Z" fill="#263238"/>
<path d="M85.9249 97.2383C89.995 93.6358 103.385 81.8957 103.93 81.4422C104.351 81.0393 104.819 80.6886 105.324 80.3976C105.746 80.2317 106.22 80.2693 106.611 80.4995C107.232 80.7899 107.837 81.1058 108.448 81.4065L112.07 83.1746C116.75 85.4625 121.4 87.8116 126.117 90.023C130.629 92.1958 135.253 94.1264 139.97 95.8065C144.676 97.4704 149.545 98.6319 154.495 99.2714C155.105 99.3479 155.716 99.4141 156.332 99.4702C156.351 99.4702 156.367 99.4861 156.367 99.5058C156.367 99.5255 156.351 99.5415 156.332 99.5415C151.474 99.2526 146.672 98.3573 142.036 96.8765C137.357 95.3892 132.782 93.5934 128.34 91.5007C123.72 89.3759 119.182 87.0982 114.603 84.8307C112.197 83.6332 109.801 82.4256 107.389 81.2638C106.845 80.9988 106.067 80.4179 105.441 80.7033C105.18 80.8404 104.939 81.0118 104.723 81.2129L103.92 81.8804C102.902 82.7415 86.4896 96.8918 85.9503 97.2995C85.9402 97.33 85.8842 97.274 85.9249 97.2383Z" fill="#263238"/>
<path d="M105.812 83.3989C108.3 83.6639 138.831 100.668 153.345 102.176C163.739 103.251 170.099 90.0027 170.099 90.0027L162.238 86.9454L105.812 83.3989Z" fill="#263238"/>
<path d="M169.381 86.2215C169.381 86.2215 171.879 100.683 164.655 106.364C157.431 112.046 104.54 111.363 96.5123 108.764C88.4841 106.165 88.2348 93.1922 97.021 90.1859C105.365 87.3273 140.871 85.9413 141.746 85.5999C141.964 85.5133 138.597 83.4903 138.612 83.368L146.681 80.8916L169.381 86.2215Z" fill="#37474F"/>
<path d="M158.423 85.855C158.423 85.7939 158.524 85.8142 158.524 85.855C158.528 87.5321 159.118 89.1549 160.193 90.441C161.424 91.8626 163.246 92.6575 164.879 93.4983C165.036 93.5747 164.919 93.8244 164.752 93.7735C163.743 93.4615 162.771 93.043 161.852 92.5251C161.01 92.0736 160.269 91.4545 159.674 90.706C158.598 89.3355 158.144 87.5761 158.423 85.855V85.855Z" fill="#263238"/>
<path d="M142.315 84.0661C142.682 83.5973 143.084 83.1489 143.465 82.6954C144.371 81.6152 145.276 80.5349 146.223 79.4954C146.314 79.3935 146.492 79.5362 146.406 79.6432C145.77 80.4789 145.093 81.2891 144.432 82.1044L143.414 83.3528C143.055 83.7261 142.733 84.134 142.453 84.5706C142.209 85.0343 142.534 85.4266 143.012 85.4776C143.437 85.4875 143.849 85.3364 144.167 85.0547C144.884 84.4179 145.54 83.715 146.126 82.9553C146.508 82.5273 146.889 82.0993 147.276 81.6763C147.662 81.2534 148.12 80.7948 148.532 80.3464C148.558 80.3158 148.609 80.3464 148.588 80.3923C148.227 80.9018 147.896 81.4114 147.54 81.8903C147.184 82.3693 146.818 82.8687 146.446 83.3528C146.075 83.8368 145.734 84.2598 145.358 84.7031C145.046 85.0908 144.673 85.4247 144.254 85.6916C143.567 86.0942 142.376 86.2012 142.01 85.2942C141.883 84.8596 142 84.3902 142.315 84.0661V84.0661Z" fill="#263238"/>
<path d="M97.6112 108.81C100.374 108.866 103.136 109.024 105.899 109.085C108.661 109.146 111.383 109.156 114.125 109.131C119.63 109.08 125.131 108.866 130.629 108.489C136.18 108.107 142.168 107.551 147.683 106.787C150.323 106.42 152.999 106.114 155.604 105.554C157.947 105.106 160.113 103.995 161.847 102.354C165.408 98.8888 166.807 93.7831 167.382 88.9117C167.458 88.2595 167.519 87.6022 167.57 86.9448C167.57 86.9251 167.586 86.9092 167.606 86.9092C167.625 86.9092 167.641 86.9251 167.641 86.9448C167.316 91.9385 166.542 97.1359 163.403 101.167C162.085 102.916 160.331 104.287 158.316 105.141C155.848 106.135 153.106 106.369 150.496 106.721C144.961 107.475 138.948 108.056 133.382 108.489C127.816 108.922 122.159 109.192 116.542 109.279C110.925 109.365 105.298 109.279 99.6818 109.003C98.995 108.968 98.3133 108.932 97.6468 108.871C97.5705 108.871 97.5705 108.81 97.6112 108.81Z" fill="#263238"/>
<path d="M115.041 87.5516C116.781 87.2968 118.516 87.042 120.266 86.8637C122.016 86.6853 123.797 86.5223 125.567 86.3541C129.067 86.0586 132.578 85.7936 136.083 85.6306C138.077 85.5338 140.072 85.5236 142.066 85.549C142.132 85.549 142.127 85.6408 142.066 85.6459C138.561 85.9669 135.05 86.186 131.535 86.4204C128.019 86.6548 124.529 86.9656 121.029 87.2968C119.045 87.4853 117.061 87.6331 115.071 87.8064C114.919 87.8216 114.888 87.572 115.041 87.5516Z" fill="#263238"/>
<path d="M138.189 83.1797C139.589 83.7851 140.935 84.5078 142.214 85.3402C143.517 86.1206 144.763 86.9924 145.943 87.9491C145.978 87.9797 145.943 88.0204 145.897 88.0051C144.534 87.3733 143.221 86.5784 141.919 85.8191C140.599 85.079 139.325 84.2606 138.103 83.3682C138.021 83.3019 138.072 83.1287 138.189 83.1797Z" fill="#263238"/>
<path d="M144.63 73.3961L142.814 78.8534C142.814 78.8534 169.778 96.8815 171.03 96.2037C171.03 96.2037 168.338 62.0381 161.246 54.6955C157.685 51.0216 153.65 51.3987 151.127 54.0891C150.491 54.7719 143.648 62.135 142.921 66.1044C142.29 69.6152 144.63 73.3961 144.63 73.3961Z" fill="#5651F9"/>
<path opacity="0.1" fill-rule="evenodd" clip-rule="evenodd" d="M155.981 52.0258L159.664 53.3761C158.591 52.5821 157.312 52.1134 155.981 52.0258ZM162.111 55.7403L153.233 52.5352V52.5606C153.05 52.6473 152.872 52.739 152.689 52.8664L162.528 56.3619C162.391 56.1428 162.254 55.939 162.111 55.7403ZM151.127 54.064C151.198 53.9876 151.27 53.9162 151.346 53.8449L163.556 58.2525C163.648 58.4411 163.734 58.6296 163.821 58.8232L151.005 54.1965L151.127 54.064ZM164.558 60.6165L149.967 55.3477V55.3834C149.923 55.4296 149.88 55.4775 149.836 55.5264L149.836 55.5265C149.773 55.5963 149.708 55.6682 149.637 55.7401L164.757 61.1566L164.558 60.6165ZM148.65 56.8764L165.352 62.9044L165.52 63.4446L148.344 57.2433L148.65 56.8764ZM166.024 65.1364L147.388 58.4052V58.4714C147.331 58.5314 147.276 58.5985 147.218 58.6684L147.218 58.6685C147.178 58.7173 147.137 58.7676 147.093 58.8179L166.166 65.6459C166.15 65.5884 166.134 65.5296 166.117 65.4699L166.117 65.4699L166.117 65.4694L166.117 65.4693L166.117 65.4689L166.117 65.4689C166.087 65.3599 166.056 65.2481 166.024 65.1364ZM146.192 59.9746L166.609 67.3479C166.627 67.417 166.644 67.4861 166.662 67.5546C166.688 67.6578 166.713 67.7594 166.741 67.8574L145.918 60.3415L146.192 59.9746ZM167.133 69.5391L145.078 61.5747L145.058 61.6206C144.992 61.748 144.91 61.8754 144.829 61.9569L167.245 70.0486C167.225 69.9532 167.204 69.8594 167.183 69.7662L167.183 69.7662L167.183 69.7662C167.166 69.6902 167.149 69.6146 167.133 69.5391ZM144.061 63.2151L167.591 71.7094C167.608 71.7934 167.625 71.8788 167.641 71.9641C167.658 72.0495 167.674 72.1348 167.692 72.2189L143.847 63.6074C143.922 63.5089 143.998 63.3934 144.076 63.2609L144.061 63.2151ZM168.033 73.9109L143.247 64.9173L143.262 64.9632C143.206 65.0957 143.155 65.2434 143.109 65.381L168.13 74.4205C168.115 74.3364 168.098 74.2511 168.081 74.1657C168.065 74.0804 168.048 73.995 168.033 73.9109ZM142.819 66.7671L168.415 76.0104C168.431 76.1021 168.446 76.1937 168.462 76.2862C168.474 76.3634 168.487 76.4412 168.501 76.52L142.799 67.241C142.814 67.1379 142.824 66.9827 142.833 66.8301L142.834 66.813L142.819 66.7671ZM168.847 78.65C168.822 78.4768 168.796 78.3086 168.766 78.1404L142.921 68.8513C142.951 69.0245 142.982 69.1927 143.023 69.3608L168.847 78.65ZM169.107 80.2651L169.183 80.7746L143.745 71.6026C143.674 71.4294 143.603 71.246 143.531 71.0523L169.107 80.2651ZM169.442 82.4205L144.585 73.4115L144.468 73.8854L169.519 82.93L169.442 82.4205ZM143.989 75.2005L169.717 84.4897L169.778 84.9992L143.832 75.6387L143.989 75.2005ZM169.987 86.6295L143.399 76.9837L143.257 77.4576L170.048 87.1391L169.987 86.6295ZM142.804 78.7721L170.241 88.6779C170.241 88.7802 170.256 88.8825 170.271 88.986C170.281 89.0525 170.291 89.1196 170.297 89.1874L144.178 79.7556L142.789 78.8333L142.804 78.7721ZM170.529 91.1529C170.512 91.0377 170.496 90.9265 170.496 90.813L149.296 83.1748L150.914 84.2346L170.551 91.3225C170.545 91.2646 170.537 91.2083 170.529 91.1529ZM170.714 92.8924L170.76 93.4019L157.945 88.7752L156.25 87.6694L170.714 92.8924ZM170.936 95.2865C170.924 95.1841 170.913 95.0786 170.913 94.9655L163.704 92.382C164.385 92.7999 165.042 93.1922 165.657 93.5591L170.953 95.475C170.949 95.4126 170.943 95.3501 170.936 95.2865Z" fill="#030402"/>
<path d="M149.382 71.9132C150.532 72.341 151.649 72.8519 152.724 73.4419C153.233 73.7425 153.767 74.0635 154.276 74.3998C154.531 74.568 154.785 74.726 155.044 74.8839C155.314 75.054 155.603 75.1924 155.904 75.2967C155.93 75.2967 155.904 75.3425 155.904 75.3374C155.613 75.2728 155.325 75.1894 155.044 75.0877C154.773 74.979 154.509 74.8513 154.256 74.7056C153.717 74.41 153.187 74.0839 152.653 73.7782C151.565 73.1667 150.481 72.5502 149.357 72.0151C149.285 71.9795 149.326 71.8928 149.382 71.9132Z" fill="#263238"/>
<path d="M146.187 72.1734C147.185 72.3328 148.174 72.5489 149.148 72.8206C149.657 72.9581 150.109 73.1212 150.583 73.2995L151.254 73.5696C151.503 73.6664 151.737 73.804 151.982 73.9008C151.982 73.9008 151.982 73.9518 151.982 73.9416C151.743 73.855 151.473 73.8091 151.254 73.7378L150.527 73.5237L149.077 73.0957C148.115 72.8002 147.149 72.5148 146.172 72.2499C146.111 72.2295 146.136 72.1632 146.187 72.1734Z" fill="#263238"/>
<path d="M160.392 55.088C170.155 65.2791 184.395 91.0523 186.155 94.7517C187.345 97.2587 174.25 103.873 173.69 102.048C172.978 99.7147 161.567 70.8587 158.54 59.9695C156.866 53.967 158.372 52.9835 160.392 55.088Z" fill="#AD6359"/>
<path d="M173.075 100.326C173.533 101.575 175.11 106.884 176.178 107.547C177.247 108.209 182.97 108.056 185.845 108.056C188.719 108.056 189.289 107.251 189.243 106.258C189.197 105.264 183.138 105.08 183.138 105.08C183.138 105.08 191.227 107.389 193.252 107.781C195.277 108.173 199.952 109.34 200.629 107.654C200.934 106.894 199.657 106.125 199.657 106.125C199.657 106.125 201.616 106.696 201.926 105.717C202.282 104.607 200.726 103.995 200.726 103.995C200.726 103.995 201.952 104.245 201.977 103.338C202.043 101.3 194.346 100.321 194.346 100.321C194.346 100.321 200.217 103.185 200.405 101.534C200.67 99.246 188.633 96.739 187.381 95.7403C186.562 95.0468 185.88 94.205 185.371 93.2588L173.075 100.326Z" fill="#AD6359"/>
<path d="M189.202 106.772C189.243 106.486 189.14 106.198 188.928 106.003C188.722 105.813 188.486 105.658 188.231 105.544C187.696 105.317 187.143 105.138 186.577 105.009C185.448 104.724 184.283 104.5 183.128 104.219C184.327 104.198 185.524 104.332 186.689 104.617C187.282 104.754 187.852 104.973 188.383 105.269C188.654 105.416 188.891 105.617 189.08 105.86C189.279 106.121 189.326 106.468 189.202 106.772V106.772Z" fill="#263238"/>
<path d="M199.657 106.13C198.828 105.926 198.009 105.692 197.19 105.452C196.371 105.213 195.562 104.968 194.753 104.724L192.321 103.959C191.512 103.705 190.703 103.45 189.884 103.21C190.741 103.3 191.592 103.449 192.428 103.659C193.262 103.847 194.081 104.087 194.895 104.337C195.709 104.586 196.518 104.846 197.312 105.162C198.106 105.478 198.879 105.768 199.657 106.13Z" fill="#263238"/>
<path d="M191.833 101.192C192.614 101.243 193.391 101.351 194.158 101.513C194.929 101.668 195.691 101.863 196.442 102.099C197.189 102.334 197.923 102.609 198.64 102.925C199.361 103.234 200.06 103.593 200.731 104C199.988 103.745 199.265 103.46 198.528 103.215C197.79 102.971 197.063 102.706 196.32 102.487C195.577 102.268 194.834 102.033 194.091 101.814C193.349 101.595 192.591 101.396 191.833 101.192Z" fill="#263238"/>
<path d="M193.018 99.2612C194.282 99.3584 195.527 99.6222 196.722 100.046C197.924 100.446 199.07 101.001 200.13 101.697C198.935 101.274 197.775 100.826 196.569 100.428C195.363 100.031 194.224 99.6536 193.018 99.2612Z" fill="#263238"/>
<path d="M169.396 65.2076L159.267 68.5146C159.267 68.5146 157.11 61.3808 157.085 56.8866C157.059 52.3923 159.71 52.9273 162.63 56.1885C165.55 59.4496 169.396 65.2076 169.396 65.2076Z" fill="#5651F9"/>
<path d="M159.15 66.0181C161.933 64.8394 164.792 63.8503 167.707 63.0576C167.707 63.0576 167.748 63.1188 167.707 63.129C165.423 64.0716 160.732 65.6105 159.16 66.1149C159.155 66.1149 159.12 66.0283 159.15 66.0181Z" fill="#263238"/>
<path d="M161.078 67.9236C160.458 68.0611 159.837 68.2191 159.226 68.3974L159.389 68.479C159.109 67.2815 158.804 66.0892 158.504 64.9121C158.204 63.735 157.888 62.5325 157.558 61.3452C157.668 62.5785 157.864 63.8026 158.143 65.0089C158.417 66.2154 158.757 67.4061 159.16 68.5758L159.201 68.7083L159.303 68.6624C159.903 68.4178 160.493 68.1783 161.078 67.9236Z" fill="#263238"/>
<path d="M157.222 62.3032C157.318 62.8462 157.519 63.3653 157.812 63.8319C157.908 63.9861 158.023 64.1281 158.153 64.2548C158.058 63.9051 157.934 63.5642 157.782 63.2357C157.632 62.904 157.444 62.591 157.222 62.3032Z" fill="#263238"/>
<path d="M158.143 53.9569C157.95 54.4409 155.34 56.4129 153.055 55.9696C152.313 55.8269 152.653 52.6728 152.653 52.6728L152.628 52.3569L152.297 47.9696L157.746 45.4932L158.53 45.1772C158.53 45.1772 158.53 46.3849 158.53 47.883V48.097C158.53 48.1836 158.53 48.2651 158.53 48.3416C158.53 48.5658 158.53 48.7951 158.53 49.0244C158.53 49.2537 158.53 49.3658 158.53 49.5339V50.0792C158.489 51.3791 158.36 52.6747 158.143 53.9569V53.9569Z" fill="#AD6359"/>
<path d="M158.54 47.883C157.322 50.1729 155.16 51.8095 152.628 52.3569L152.297 47.9696L157.746 45.4932L158.529 45.1772C158.529 45.1772 158.54 46.3849 158.54 47.883Z" fill="#263238"/>
<path d="M148.186 39.2515C145.012 46.2884 148.863 48.9891 150.379 49.6719C151.753 50.2884 156.52 52.2197 160.402 45.5598C164.284 38.8999 162.02 35.1853 158.947 33.6005C155.874 32.0158 151.356 32.2146 148.186 39.2515Z" fill="#AD6359"/>
<path d="M150.242 37.7682C150.41 37.8047 150.58 37.832 150.751 37.8497C150.93 37.9111 151.125 37.9111 151.305 37.8497C151.411 37.7852 151.459 37.6571 151.422 37.5389C151.319 37.315 151.103 37.1647 150.857 37.1465C150.615 37.094 150.362 37.1321 150.145 37.2535C150.055 37.3197 150.011 37.4316 150.032 37.5413C150.052 37.6511 150.134 37.7393 150.242 37.7682V37.7682Z" fill="#263238"/>
<path d="M154.897 39.934C154.734 39.8474 154.597 39.7404 154.449 39.6436C154.277 39.5641 154.136 39.4298 154.047 39.2614C154.015 39.1407 154.064 39.0126 154.169 38.9455C154.396 38.8495 154.658 38.8846 154.851 39.0372C155.066 39.1604 155.229 39.3579 155.309 39.5926C155.338 39.7038 155.3 39.8216 155.212 39.8948C155.123 39.968 155.001 39.9833 154.897 39.934V39.934Z" fill="#263238"/>
<path d="M153.014 41.2739C153.014 41.2739 153.045 41.3147 153.014 41.3351C152.801 41.8141 152.633 42.4 153.014 42.7414C153.014 42.7414 153.014 42.7771 153.014 42.7669C152.506 42.4714 152.735 41.6969 153.014 41.2739Z" fill="#263238"/>
<path d="M153.661 40.9475C154.464 41.2074 153.879 42.8023 153.152 42.5577C152.424 42.3131 152.984 40.7284 153.661 40.9475Z" fill="#263238"/>
<path d="M153.94 41.1462C154.047 41.2888 154.124 41.4977 154.286 41.5742C154.449 41.6506 154.678 41.5742 154.866 41.4366C154.866 41.4366 154.892 41.4366 154.866 41.4672C154.76 41.7729 154.526 42.043 154.185 41.9767C153.844 41.9105 153.752 41.564 153.793 41.2277C153.818 41.1462 153.9 41.0901 153.94 41.1462Z" fill="#263238"/>
<path d="M150.476 40.0361C150.476 40.0361 150.425 40.0361 150.42 40.0616C150.257 40.5712 149.993 41.1113 149.484 41.1164V41.1419C150.054 41.2642 150.4 40.5355 150.476 40.0361Z" fill="#263238"/>
<path d="M150.217 39.3581C149.443 39.0116 148.812 40.5861 149.53 40.8868C150.247 41.1874 150.868 39.6486 150.217 39.3581Z" fill="#263238"/>
<path d="M149.85 39.3277C149.692 39.3634 149.509 39.4653 149.341 39.4143C149.174 39.3634 149.102 39.1341 149.062 38.9048C149.062 38.9048 149.036 38.9048 149.031 38.9048C148.899 39.2003 148.873 39.557 149.138 39.7303C149.402 39.9035 149.677 39.7303 149.871 39.4398C149.921 39.4194 149.911 39.3175 149.85 39.3277Z" fill="#263238"/>
<path d="M151.814 45.07C151.668 45.1809 151.488 45.2384 151.305 45.2331C151.116 45.1724 150.943 45.0716 150.796 44.9375C150.881 45.1828 151.091 45.3636 151.346 45.4114C151.572 45.42 151.781 45.2941 151.88 45.0904C151.88 45.0904 151.834 45.0598 151.814 45.07Z" fill="#263238"/>
<path d="M150.435 42.5173C150.248 42.848 150.078 43.1881 149.926 43.5364C149.926 43.5669 149.992 43.6179 150.104 43.6688V43.6688C150.665 44.0123 151.37 44.0123 151.931 43.6688C151.949 43.6604 151.957 43.6387 151.949 43.6204C151.94 43.6021 151.919 43.5942 151.9 43.6026C151.345 43.7367 150.762 43.6884 150.237 43.465C150.237 43.358 150.924 42.293 150.873 42.2676C150.594 42.1892 150.307 42.1497 150.018 42.1504C150.771 40.6778 151.748 39.3376 152.47 37.8599C152.478 37.838 152.471 37.8133 152.451 37.8C152.432 37.7867 152.406 37.7883 152.389 37.8039C151.296 39.2064 150.346 40.7155 149.555 42.3083C149.463 42.5122 150.277 42.5223 150.435 42.5173Z" fill="#263238"/>
<path d="M150.201 43.4551C150.269 43.8172 150.428 44.1558 150.664 44.4385C150.798 44.5897 150.976 44.6949 151.173 44.7392C151.6 44.8309 151.788 44.4895 151.87 44.1583C151.91 43.9811 151.931 43.7999 151.931 43.6181C151.352 43.7508 150.745 43.6936 150.201 43.4551Z" fill="#263238"/>
<path d="M150.654 44.4382C150.788 44.5894 150.966 44.6946 151.163 44.7388C151.59 44.8305 151.778 44.4891 151.86 44.1579C151.442 43.956 150.94 44.0726 150.654 44.4382V44.4382Z" fill="#FF9ABB"/>
<path d="M160.203 45.1568C158.489 44.4332 159.664 41.7428 159.664 41.7428C159.664 41.7428 157.802 40.7237 159.013 37.5339C157.697 38.4784 156.016 38.7518 154.47 38.2727C153.879 38.1148 156.367 37.4778 156.367 37.4778C156.367 37.4778 153.259 38.5377 149.448 35.9797C149.179 35.7963 151.687 31.6893 155.584 31.5976C159.481 31.5059 162.045 33.6358 163.169 36.5454C163.169 36.5454 165.077 38.6753 164.375 41.0498C163.673 43.4243 160.875 45.4371 160.203 45.1568Z" fill="#263238"/>
<path d="M159.038 45.5954C159.038 45.5954 161.424 43.8782 162.254 44.8056C163.083 45.733 160.727 48.6119 159.369 48.6374C159.015 48.6683 158.664 48.553 158.397 48.3183C158.13 48.0835 157.97 47.7497 157.955 47.3941L159.038 45.5954Z" fill="#AD6359"/>
<path d="M161.562 45.6147C161.562 45.6147 161.562 45.6453 161.562 45.6504C160.595 45.6962 159.872 46.323 159.272 47.0313C159.432 46.8946 159.644 46.8351 159.851 46.8684C160.059 46.9018 160.241 47.0246 160.351 47.2045C160.351 47.2045 160.351 47.2555 160.315 47.2402C160.044 47.035 159.673 47.0227 159.389 47.2096C159.16 47.3668 158.947 47.546 158.753 47.7447C158.687 47.8058 158.565 47.7192 158.626 47.6427V47.6427C158.992 46.5319 160.361 45.3141 161.562 45.6147Z" fill="#263238"/>
<path fill-rule="evenodd" clip-rule="evenodd" d="M161.475 42.8232L161.205 42.1353L158.606 42.706L159.186 44.2346L161.475 42.8232ZM160.966 42.7162L159.389 43.5671L159.176 43.027L160.905 42.5582L160.966 42.7162Z" fill="white"/>
<path fill-rule="evenodd" clip-rule="evenodd" d="M161.211 41.7018V40.9681L158.601 40.5044L158.555 42.1452L161.211 41.7018ZM160.768 41.4115L158.987 41.6051V41.0242L160.768 41.2433V41.4115Z" fill="white"/>
<rect width="27.3248" height="21.3684" rx="1.65605" transform="matrix(-1 0 0 1 136.624 0)" fill="#D4604C"/>
<path d="M127.231 20.5405H118.692L122.962 25.6689L127.231 20.5405Z" fill="#D4604C"/>
<circle cx="126.274" cy="6.2102" r="2.07006" fill="white"/>
<path d="M120.892 11.1785C120.892 12.3217 119.965 13.2485 118.822 13.2485C117.678 13.2485 116.751 12.3217 116.751 11.1785C116.751 10.0352 117.678 9.1084 118.822 9.1084C119.371 9.1084 119.897 9.32649 120.285 9.71471C120.673 10.1029 120.892 10.6294 120.892 11.1785Z" fill="white"/>
<path d="M128.344 15.3186C128.344 16.4619 127.417 17.3887 126.274 17.3887C125.13 17.3887 124.204 16.4619 124.204 15.3186C124.204 14.1753 125.13 13.2485 126.274 13.2485C126.823 13.2485 127.349 13.4666 127.737 13.8548C128.126 14.2431 128.344 14.7696 128.344 15.3186Z" fill="white"/>
<path d="M125.568 15.7323L118.407 11.0677L125.573 6.62402L125.857 7.09049L119.423 11.0786L125.86 15.274L125.568 15.7323Z" fill="white"/>
</svg>
