<svg width="135" height="129" viewBox="0 0 135 129" fill="none" xmlns="http://www.w3.org/2000/svg">
<circle opacity="0.1" cx="62" cy="62.8101" r="62" fill="#261204"/>
<circle cx="62" cy="62.8101" r="54" fill="#5651F9"/>
<circle cx="112" cy="105.81" r="20.5" fill="#64DC9B" stroke="white" stroke-width="5"/>
<path d="M119.476 101.323L110.513 110.286L106 105.773" stroke="white" stroke-width="4" stroke-linecap="round"/>
<path d="M75 49.3101V41.8101C75 34.6304 69.1797 28.8101 62 28.8101V28.8101C54.8203 28.8101 49 34.6304 49 41.8101L49 60.8101" stroke="white" stroke-width="9"/>
<path d="M75 49.3101L75 41.8101C75 34.6304 69.1797 28.8101 62 28.8101V28.8101" stroke="#E4E4E4" stroke-width="9"/>
<path d="M37 60.3555C37 57.8451 39.0351 55.8101 41.5455 55.8101H82.4545C84.9649 55.8101 87 57.8451 87 60.3555V80.8101C87 94.6172 75.8071 105.81 62 105.81C48.1929 105.81 37 94.6172 37 80.8101V60.3555Z" fill="#FFAC66"/>
<path d="M87 80.8101V60.3555C87 57.8451 84.9649 55.8101 82.4545 55.8101H62V105.81C75.8071 105.81 87 94.6172 87 80.8101Z" fill="#E2904B"/>
<path fill-rule="evenodd" clip-rule="evenodd" d="M64.5 82.19C64.5 81.0175 65.2338 79.9986 66.0912 79.1989C67.2656 78.1037 68 76.5426 68 74.8101C68 71.4964 65.3137 68.8101 62 68.8101C58.6863 68.8101 56 71.4964 56 74.8101C56 76.5426 56.7344 78.1037 57.9088 79.1989C58.7662 79.9986 59.5 81.0175 59.5 82.19V87.8101C59.5 89.1908 60.6193 90.3101 62 90.3101C63.3807 90.3101 64.5 89.1908 64.5 87.8101V82.19Z" fill="#5B4C41"/>
<path d="M66.0912 79.1989C67.2656 78.1037 68 76.5426 68 74.8101C68 71.4964 65.3137 68.8101 62 68.8101V90.3101C63.3807 90.3101 64.5 89.1908 64.5 87.8101V82.19C64.5 81.0175 65.2338 79.9986 66.0912 79.1989Z" fill="#4A382A"/>
</svg>
