<svg width="22" height="22" viewBox="0 0 22 22" fill="none" xmlns="http://www.w3.org/2000/svg">
<path d="M16.7151 19.6503C15.9455 19.8777 15.0359 19.9826 13.969 19.9826H8.7215C7.65452 19.9826 6.74497 19.8777 5.97534 19.6503C6.16775 17.3764 8.50286 15.5835 11.3452 15.5835C14.1876 15.5835 16.5227 17.3764 16.7151 19.6503Z" stroke="#191D31" stroke-width="1.31186" stroke-linecap="round" stroke-linejoin="round"/>
<path d="M13.9691 2.49121H8.72163C4.34876 2.49121 2.59961 4.24036 2.59961 8.61323V13.8607C2.59961 17.1666 3.59662 18.9769 5.97547 19.6504C6.16787 17.3765 8.50299 15.5836 11.3454 15.5836C14.1877 15.5836 16.5228 17.3765 16.7152 19.6504C19.0941 18.9769 20.0911 17.1666 20.0911 13.8607V8.61323C20.0911 4.24036 18.3419 2.49121 13.9691 2.49121ZM11.3454 13.1348C9.6137 13.1348 8.21437 11.7267 8.21437 9.99507C8.21437 8.26342 9.6137 6.86408 11.3454 6.86408C13.077 6.86408 14.4763 8.26342 14.4763 9.99507C14.4763 11.7267 13.077 13.1348 11.3454 13.1348Z" stroke="#191D31" stroke-width="1.31186" stroke-linecap="round" stroke-linejoin="round"/>
<path d="M14.4761 9.99525C14.4761 11.7269 13.0767 13.1349 11.3451 13.1349C9.61343 13.1349 8.21411 11.7269 8.21411 9.99525C8.21411 8.26359 9.61343 6.86426 11.3451 6.86426C13.0767 6.86426 14.4761 8.26359 14.4761 9.99525Z" stroke="#191D31" stroke-width="1.31186" stroke-linecap="round" stroke-linejoin="round"/>
</svg>
